<?xml version="1.0" standalone="no"?><!DOCTYPE svg PUBLIC "-//W3C//DTD SVG 1.1//EN" "http://www.w3.org/Graphics/SVG/1.1/DTD/svg11.dtd"><svg t="1576772634990" class="icon" viewBox="0 0 1024 1024" version="1.1" xmlns="http://www.w3.org/2000/svg" p-id="544" xmlns:xlink="http://www.w3.org/1999/xlink" width="32" height="32"><defs><style type="text/css">@font-face { font-family: element-icons; src: url("chrome-extension://hihigkomlmjdhobhbafoamkmpganihik/fonts/element-icons.woff") format("woff"), url("chrome-extension://hihigkomlmjdhobhbafoamkmpganihik/fonts/element-icons.ttf ") format("truetype"); }
</style></defs><path
        d="M428.373333 989.866667l78.506667-436.906667H327.68l34.133333-64.853333L578.56 34.133333l-76.8 424.96h182.613333l-25.6 51.2L428.373333 989.866667z m-95.573333-518.826667l27.306667-56.32h-126.293334v-170.666667h170.666667v75.093334l76.8-162.133334H146.773333v343.04h168.96l17.066667-29.013333z m80.213333 414.72H146.773333V542.72h146.773334l-23.893334 44.373333 194.56 1.706667-51.2 296.96z m-8.533333-87.04v-170.666667h-170.666667v170.666667h170.666667z m-128-428.373333h85.333333v-85.333334h-85.333333v85.333334z m0 385.706666h85.333333v-85.333333h-85.333333v85.333333z m257.706667 93.866667v35.84h85.333333v-85.333333h-61.44l-23.893333 49.493333z m213.333333-564.906667h-85.333333v85.333334h85.333333v-85.333334z m129.706667-128v343.04H701.44l39.253333-75.093333H544.426667l47.786666-267.946667h285.013334z m-87.04 85.333334h-170.666667v170.666666h170.666667v-170.666666z m0 556.373333h-85.333334v85.333333h170.666667v-170.666666h-85.333333v85.333333z m0-170.666667h85.333333v-85.333333h-85.333333v85.333333z m-85.333334 0h-66.56l-20.48 40.96v129.706667h85.333334v-170.666667z" p-id="545" fill="#ddd"></path></svg>
