<?xml version="1.0" standalone="no"?><!DOCTYPE svg PUBLIC "-//W3C//DTD SVG 1.1//EN" "http://www.w3.org/Graphics/SVG/1.1/DTD/svg11.dtd"><svg t="1576773075541" class="icon" viewBox="0 0 1024 1024" version="1.1" xmlns="http://www.w3.org/2000/svg" p-id="671" xmlns:xlink="http://www.w3.org/1999/xlink" width="32" height="32"><defs><style type="text/css">@font-face { font-family: element-icons; src: url("chrome-extension://hihigkomlmjdhobhbafoamkmpganihik/fonts/element-icons.woff") format("woff"), url("chrome-extension://hihigkomlmjdhobhbafoamkmpganihik/fonts/element-icons.ttf ") format("truetype"); }
</style></defs><path d="M702.273 747.593c-52.886 37.518-114.764 56.327-178.022 55.46a318.124 318.124 0 0 1-24.875-1.258c-3.353-0.32-6.71-0.876-10.078-1.301-6.46-0.867-12.935-1.743-19.222-2.975-3.897-0.748-7.704-1.758-11.512-2.652-6.168-1.467-12.308-2.945-18.327-4.76-2.9-0.91-5.727-1.95-8.598-2.93-6.944-2.359-13.86-4.79-20.597-7.647-1.523-0.617-2.988-1.345-4.512-2.036-7.852-3.503-15.645-7.178-23.146-11.308a166.38 166.38 0 0 0-1.04-0.541 307.577 307.577 0 0 1-69.16-52.46c-0.308-0.321-0.645-0.704-0.98-1.07a298.092 298.092 0 0 1-18.152-20.216c-1.201-1.495-2.374-3.105-3.59-4.643-41.56-52.648-66.625-119.275-66.625-191.762h70.499c1.82 0 3.583-0.976 4.506-2.69a5.115 5.115 0 0 0-0.231-5.246l-118.504-179.97c-0.915-1.39-2.489-2.305-4.276-2.305s-3.362 0.916-4.276 2.304L53.049 487.554a5.117 5.117 0 0 0-0.231 5.245 5.115 5.115 0 0 0 4.508 2.691h70.512c0 85.216 26.237 164.204 70.815 229.512 0.543 0.91 0.938 1.877 1.538 2.786 4.614 6.679 9.742 12.847 14.693 19.16 1.847 2.389 3.575 4.848 5.494 7.191 7.296 8.966 15.045 17.39 23.014 25.623 0.762 0.82 1.466 1.625 2.213 2.358 26.75 27.115 57.001 49.97 89.903 68.237 0.85 0.514 1.7 1.043 2.637 1.525 9.478 5.155 19.22 9.814 29.094 14.224 2.462 1.068 4.864 2.27 7.369 3.326 8.439 3.545 17.11 6.65 25.856 9.61 4.13 1.422 8.233 2.872 12.422 4.174 7.633 2.286 15.44 4.205 23.322 6.094 5.215 1.23 10.4 2.564 15.719 3.59 2.212 0.454 4.292 1.143 6.461 1.479 7.412 1.333 14.883 2.08 22.31 2.988 2.681 0.324 5.318 0.778 8 1.069 13.346 1.334 26.646 2.212 39.935 2.212 81.319 0 160.66-25.181 228.72-73.452 21.683-15.424 26.972-45.69 11.78-67.679-15.237-22.032-45.18-27.35-66.86-11.924M927.917 495.49c-0.044-84.951-26.12-163.78-70.478-228.955-0.645-1.113-1.085-2.242-1.815-3.282-5.508-7.969-11.532-15.397-17.52-22.838-0.689-0.909-1.333-1.86-2.066-2.755-40.596-49.867-91.56-88.38-149.322-113.562-1.598-0.703-3.164-1.48-4.775-2.183-9.216-3.838-18.665-7.236-28.156-10.445-3.428-1.142-6.783-2.402-10.284-3.442-8.277-2.535-16.671-4.6-25.14-6.578-4.672-1.1-9.345-2.3-14.078-3.237-2.343-0.455-4.555-1.157-6.869-1.582-6.314-1.1-12.658-1.583-18.986-2.417-4.395-0.557-8.673-1.245-13.097-1.7-10.635-0.996-21.184-1.42-31.73-1.61-1.935 0-3.795-0.309-5.714-0.309-0.35 0-0.672 0.104-1.025 0.132-81.217 0.059-160.383 24.89-228.356 73.1-21.74 15.382-27.028 45.677-11.822 67.681 15.177 22.004 45.164 27.336 66.86 11.91 52.503-37.224 113.752-56.064 176.57-55.493 9.038 0.059 17.93 0.512 26.72 1.348 2.71 0.308 5.392 0.718 8.086 1.055 7.224 0.894 14.387 1.933 21.446 3.34 3.121 0.615 6.198 1.42 9.243 2.125 6.93 1.581 13.845 3.28 20.613 5.347 2.138 0.688 4.246 1.464 6.385 2.168 7.721 2.563 15.323 5.318 22.797 8.467 0.76 0.322 1.538 0.718 2.27 1.025 44.738 19.484 83.985 49.472 114.603 87.004 0.191 0.219 0.38 0.513 0.557 0.732 43.098 53.119 69.043 121.018 69.072 194.954h-70.528c-1.82 0-3.583 0.976-4.507 2.691s-0.77 3.723 0.233 5.245L875.636 683.38a5.114 5.114 0 0 0 4.277 2.304 5.114 5.114 0 0 0 4.275-2.305l118.477-179.954a5.112 5.112 0 0 0 0.231-5.245 5.114 5.114 0 0 0-4.506-2.691h-70.473v0.001z" p-id="672"></path></svg>