<?xml version="1.0" encoding="UTF-8"?>
<svg width="64px" height="64px" viewBox="22 22 20 20" version="1.1" xmlns="http://www.w3.org/2000/svg"
     xmlns:xlink="http://www.w3.org/1999/xlink">
    <!-- Generator: Sketch 57.1 (83088) - https://sketch.com -->
    <title>icon</title>
    <desc>Created with Sketch.</desc>
    <g id="icon" stroke="none" stroke-width="1" fill="none" fill-rule="evenodd">
        <g id="编组" transform="translate(22.000000, 22.000000)" fill="#333333" fill-rule="nonzero">
            <path d="M15.2155398,1.58870546 L17.0509696,1.58870546 C18.6432128,1.58870546 19.932521,2.87906184 19.932521,4.47366352 L19.932521,17.0473008 C19.932521,18.6408543 18.6426887,19.932521 17.0509696,19.932521 L2.89792976,19.932521 C1.30568659,19.932521 0.0163784149,18.6421646 0.0163784149,17.0475629 L0.0163784149,4.47392558 C0.0163784149,2.88037213 1.30621069,1.58870546 2.89792976,1.58870546 L4.73335955,1.58870546 L4.73335955,0.802541937 C4.73335955,0.368355813 5.08533694,0.0163784149 5.51952307,0.0163784149 C5.95370919,0.0163784149 6.30568659,0.368355813 6.30568659,0.802541937 L6.30568659,1.58870546 L13.6432128,1.58870546 L13.6432128,0.802541937 C13.6432128,0.368355813 13.9951902,0.0163784149 14.4293763,0.0163784149 C14.8635624,0.0163784149 15.2155398,0.368355813 15.2155398,0.802541937 L15.2155398,1.58870546 Z M15.2155398,3.1610325 L15.2155398,3.94719602 C15.2155398,4.38138215 14.8635624,4.73335955 14.4293763,4.73335955 C13.9951902,4.73335955 13.6432128,4.38138215 13.6432128,3.94719602 L13.6432128,3.1610325 L6.30568659,3.1610325 L6.30568659,3.94719602 C6.30568659,4.38138215 5.95370919,4.73335955 5.51952307,4.73335955 C5.08533694,4.73335955 4.73335955,4.38138215 4.73335955,3.94719602 L4.73335955,3.1610325 L2.89792976,3.1610325 C2.55023934,3.16144923 2.21695884,3.29998646 1.97142407,3.54616013 C1.7258893,3.7923338 1.58821864,4.12597319 1.58870102,4.47366352 L1.58870102,17.0473008 C1.58780052,17.3951427 1.72532828,17.7290517 1.97094606,17.9753578 C2.21656384,18.2216639 2.55008674,18.3601939 2.89792976,18.3601939 L17.0509696,18.3601939 C17.39866,18.3597772 17.7319405,18.22124 17.9774753,17.9750663 C18.2230101,17.7288926 18.3606807,17.3952532 18.3601983,17.0475629 L18.3601983,4.47392558 C18.3610989,4.12608373 18.2235711,3.79217468 17.9779533,3.54586861 C17.7323355,3.29956255 17.3988126,3.1610325 17.0509696,3.1610325 L15.2155398,3.1610325 Z M14.9534853,8.66417716 C15.3876715,8.66417716 15.7396489,9.01615455 15.7396489,9.45034068 C15.7396489,9.8845268 15.3876715,10.2365042 14.9534853,10.2365042 L4.99541404,10.2365042 C4.56122791,10.2365042 4.20925052,9.8845268 4.20925052,9.45034068 C4.20925052,9.01615455 4.56122791,8.66417716 4.99541404,8.66417716 L14.9534853,8.66417716 L14.9534853,8.66417716 Z M11.8088312,12.5949948 C12.2430174,12.5949948 12.5949948,12.9469722 12.5949948,13.3811583 C12.5949948,13.8153444 12.2430174,14.1673218 11.8088312,14.1673218 L4.99541404,14.1673218 C4.56122791,14.1673218 4.20925052,13.8153444 4.20925052,13.3811583 C4.20925052,12.9469722 4.56122791,12.5949948 4.99541404,12.5949948 L11.8088312,12.5949948 Z" id="形状"></path>
        </g>
    </g>
</svg>
