<?xml version="1.0" encoding="UTF-8"?>
<svg width="64px" height="64px" viewBox="0 0 64 64" version="1.1" xmlns="http://www.w3.org/2000/svg" xmlns:xlink="http://www.w3.org/1999/xlink">
    <!-- Generator: Sketch 57.1 (83088) - https://sketch.com -->
    <title>icon</title>
    <desc>Created with Sketch.</desc>
    <g id="icon" stroke="none" stroke-width="1" fill="none" fill-rule="evenodd">
        <g id="编组" transform="translate(16.000000, 16.000000)" fill="#FFFFFF" fill-rule="nonzero">
            <path d="M15.9209162,2.28455256 C17.7628196,2.28455256 19.548402,2.64477983 21.228125,3.35522017 C22.851669,4.04190341 24.3102273,5.02546165 25.5632812,6.27855114 C26.8163707,7.53160511 27.7998935,8.99016335 28.4866122,10.6137074 C29.1970526,12.2933949 29.5572798,14.0790128 29.5572798,15.9209162 C29.5572798,17.7628196 29.1970526,19.548402 28.4866122,21.228125 C27.799929,22.851669 26.8163707,24.3102273 25.5632812,25.5632812 C24.3102273,26.8163707 22.851669,27.7998935 21.228125,28.4866122 C19.5484375,29.1970526 17.7628196,29.5572798 15.9209162,29.5572798 C14.0790128,29.5572798 12.2934304,29.1970526 10.6137074,28.4866122 C8.99016335,27.799929 7.53160511,26.8163707 6.27855114,25.5632812 C5.02546165,24.3102273 4.04193892,22.851669 3.35522017,21.228125 C2.64477983,19.5484375 2.28455256,17.7628196 2.28455256,15.9209162 C2.28455256,14.0790128 2.64477983,12.2934304 3.35522017,10.6137074 C4.04190341,8.99016335 5.02546165,7.53160511 6.27855114,6.27855114 C7.53160511,5.02546165 8.99016335,4.04193892 10.6137074,3.35522017 C12.2934304,2.64477983 14.0790128,2.28455256 15.9209162,2.28455256 L15.9209162,2.28455256 Z M15.9209162,0.0118252841 C7.13455256,0.0118252841 0.0118252841,7.13455256 0.0118252841,15.9209162 C0.0118252841,24.7072798 7.13455256,31.8300071 15.9209162,31.8300071 C24.7072798,31.8300071 31.8300071,24.7072798 31.8300071,15.9209162 C31.8300071,7.13455256 24.7072798,0.0118252841 15.9209162,0.0118252841 Z" id="形状"></path>
            <path d="M17.5516335,15.9446023 L22.7850497,10.7111861 C23.2288352,10.2674006 23.2288352,9.54790483 22.7850497,9.10411932 C22.3412997,8.66033381 21.6217685,8.66033381 21.1780185,9.10411932 L15.9446023,14.337571 L10.7111861,9.10415483 C10.2674006,8.66036932 9.54790483,8.66036932 9.10411932,9.10415483 C8.66033381,9.54794034 8.66033381,10.2674361 9.10411932,10.7112216 L14.337571,15.9446023 L9.10415483,21.1780185 C8.66036932,21.6217685 8.66036932,22.3412997 9.10415483,22.7850497 C9.32602983,23.0069602 9.6168679,23.1178977 9.90767045,23.1178977 C10.198473,23.1178977 10.4893111,23.0069602 10.7111861,22.7850497 L15.9446023,17.5516335 L21.1780185,22.7850497 C21.3998935,23.0069602 21.6907315,23.1178977 21.9815341,23.1178977 C22.2723366,23.1178977 22.5631747,23.0069602 22.7850497,22.7850497 C23.2288352,22.3412997 23.2288352,21.6217685 22.7850497,21.1780185 L17.5516335,15.9446023 Z" id="路径"></path>
        </g>
    </g>
</svg>