<?xml version="1.0" encoding="UTF-8"?>
<svg width="218px" height="48px" viewBox="0 0 218 48" version="1.1" xmlns="http://www.w3.org/2000/svg" xmlns:xlink="http://www.w3.org/1999/xlink">
    <!-- Generator: Sketch 61.2 (89653) - https://sketch.com -->
    <title>编组备份</title>
    <desc>Created with Sketch.</desc>
    <g id="app" stroke="none" stroke-width="1" fill="none" fill-rule="evenodd">
        <g id="登录备份-3" transform="translate(-89.000000, -135.000000)">
            <g id="编组备份" transform="translate(90.000000, 136.000000)">
                <path d="M50,6.22708912 L46.1946165,43.5603383 L42.5142925,43.7557435 L46.319676,6.42249432 L50,6.22708912 Z M35.1893759,2.90520071 L34.739757,31.7356097 L31.0177465,32.1752714 L31.4673654,3.34486241 L35.1893759,2.90520071 Z M38.3992377,44 L19.0447832,44 C15.343616,44 12.7709624,41.2154759 13.3545736,37.8447362 L19.7594092,1 L23.4040019,1 L17.0021439,37.8447362 C16.7311815,39.4079778 17.9043592,40.6781116 19.6194616,40.6781116 L38.9739162,40.6781116 L38.3992377,44 Z M14.697475,6.37364302 C11.1928299,22.8419591 7.27429728,34.2758773 3.4093616,43.5603383 L0,42.8275688 C3.82920438,33.738513 7.58992377,22.5977026 11.0677704,6.27594042 L14.697475,6.37364302 Z" id="Fill-1" fill="#231916"></path>
                <path d="M50,6.22708912 L46.1946165,43.5603383 L42.5142925,43.7557435 L46.319676,6.42249432 L50,6.22708912 Z M35.1893759,2.90520071 L34.739757,31.7356097 L31.0177465,32.1752714 L31.4673654,3.34486241 L35.1893759,2.90520071 Z M38.3992377,44 L19.0447832,44 C15.343616,44 12.7709624,41.2154759 13.3545736,37.8447362 L19.7594092,1 L23.4040019,1 L17.0021439,37.8447362 C16.7311815,39.4079778 17.9043592,40.6781116 19.6194616,40.6781116 L38.9739162,40.6781116 L38.3992377,44 Z M14.697475,6.37364302 C11.1928299,22.8419591 7.27429728,34.2758773 3.4093616,43.5603383 L0,42.8275688 C3.82920438,33.738513 7.58992377,22.5977026 11.0677704,6.27594042 L14.697475,6.37364302 Z" id="Stroke-3" stroke="#231916" stroke-width="1.4"></path>
                <path d="M97.3343179,0.0494898271 L96.3155246,5.14694202 L103.327047,5.14694202 C106.966013,5.14694202 109.492504,7.9706116 108.9187,11.3881591 L104.307782,38.714792 C103.733979,42.12959 100.253102,44.9505102 96.6141365,44.9505102 L90.6594653,44.9505102 L91.2274132,41.5824525 L97.1820844,41.5824525 C98.9210592,41.5824525 100.455104,40.2984664 100.72444,38.714792 L105.332431,11.3881591 C105.598839,9.8017352 104.489292,8.56448952 102.750317,8.56448952 L95.5807053,8.56448952 C92.2110757,23.862345 88.3701079,34.7528564 81.9528811,45 L78.8555153,43.6637747 C84.9975507,33.8125496 88.6657922,23.3152074 91.9446671,8.56448952 L85.1439291,8.56448952 L85.7206598,5.14694202 L92.7321827,5.14694202 L93.7568311,0 L97.3343179,0.0494898271 Z M83.1004874,5.0507118 L62.5958084,5.0507118 L63.1666839,1.68265412 L83.6713629,1.68265412 L83.1004874,5.0507118 Z M79.1248514,32.0776563 L78.0299414,38.563573 C77.4532107,41.9783711 73.9752611,44.8020407 70.3362954,44.8020407 L56,44.8020407 L64.8471074,17.9703061 L59.8380403,17.9703061 L60.4059883,14.6022484 L82.0172876,14.6022484 L81.4493396,17.9703061 L68.4831455,17.9703061 L60.7836444,41.4367324 L70.9042434,41.4367324 C72.590522,41.4367324 74.1772633,40.1472475 74.4436719,38.563573 L75.5385819,32.0776563 L79.1248514,32.0776563 Z" id="Fill-5" fill="#231916"></path>
                <path d="M97.3343179,0.0494898271 L96.3155246,5.14694202 L103.327047,5.14694202 C106.966013,5.14694202 109.492504,7.9706116 108.9187,11.3881591 L104.307782,38.714792 C103.733979,42.12959 100.253102,44.9505102 96.6141365,44.9505102 L90.6594653,44.9505102 L91.2274132,41.5824525 L97.1820844,41.5824525 C98.9210592,41.5824525 100.455104,40.2984664 100.72444,38.714792 L105.332431,11.3881591 C105.598839,9.8017352 104.489292,8.56448952 102.750317,8.56448952 L95.5807053,8.56448952 C92.2110757,23.862345 88.3701079,34.7528564 81.9528811,45 L78.8555153,43.6637747 C84.9975507,33.8125496 88.6657922,23.3152074 91.9446671,8.56448952 L85.1439291,8.56448952 L85.7206598,5.14694202 L92.7321827,5.14694202 L93.7568311,0 L97.3343179,0.0494898271 Z M83.1004874,5.0507118 L62.5958084,5.0507118 L63.1666839,1.68265412 L83.6713629,1.68265412 L83.1004874,5.0507118 Z M79.1248514,32.0776563 L78.0299414,38.563573 C77.4532107,41.9783711 73.9752611,44.8020407 70.3362954,44.8020407 L56,44.8020407 L64.8471074,17.9703061 L59.8380403,17.9703061 L60.4059883,14.6022484 L82.0172876,14.6022484 L81.4493396,17.9703061 L68.4831455,17.9703061 L60.7836444,41.4367324 L70.9042434,41.4367324 C72.590522,41.4367324 74.1772633,40.1472475 74.4436719,38.563573 L75.5385819,32.0776563 L79.1248514,32.0776563 Z" id="Stroke-7" stroke="#231916" stroke-width="1.4"></path>
                <path d="M124.297534,17.7423696 L140.226459,17.7423696 L141.641531,9.21799498 L126.853886,9.21799498 L132.689976,0 L135.684395,1.34044896 L132.860016,5.84898159 L142.200643,5.84898159 L143.1373,0.198177259 L146.667775,0.198177259 L145.731118,5.84898159 L160,5.84898159 L159.440888,9.21799498 L145.172006,9.21799498 L143.756934,17.7423696 L159.270849,17.7423696 L158.711737,21.1141354 L150.619024,21.1141354 L148.541088,33.6515995 C148.284588,35.1874732 149.420104,36.4756254 151.080147,36.4756254 L155.855655,36.4756254 L155.296543,39.8473913 L150.523918,39.8473913 C146.941566,39.8473913 144.434209,37.122454 145.010613,33.6515995 L147.088549,21.1141354 L135.102227,21.1141354 C133.064639,28.3999021 129.508226,34.1965869 122.553911,39.8473913 L120.455801,37.4692642 C126.519571,32.5120802 129.735906,27.505352 131.522758,21.1141354 L123.738422,21.1141354 L124.297534,17.7423696 Z M154.959347,45 L118.58537,45 C115.003018,45 112.512953,42.1759741 113.080711,38.7574164 L117.461382,12.3420393 L120.991856,12.3420393 L116.611186,38.7574164 C116.337394,40.3923787 117.481556,41.6309866 119.141599,41.6309866 L155.518459,41.6309866 L154.959347,45 Z M122.93722,0.597284238 L121.516384,9.16845067 L117.988791,9.16845067 L119.409627,0.597284238 L122.93722,0.597284238 Z" id="Fill-9" fill="#231916"></path>
                <path d="M124.297534,17.7423696 L140.226459,17.7423696 L141.641531,9.21799498 L126.853886,9.21799498 L132.689976,0 L135.684395,1.34044896 L132.860016,5.84898159 L142.200643,5.84898159 L143.1373,0.198177259 L146.667775,0.198177259 L145.731118,5.84898159 L160,5.84898159 L159.440888,9.21799498 L145.172006,9.21799498 L143.756934,17.7423696 L159.270849,17.7423696 L158.711737,21.1141354 L150.619024,21.1141354 L148.541088,33.6515995 C148.284588,35.1874732 149.420104,36.4756254 151.080147,36.4756254 L155.855655,36.4756254 L155.296543,39.8473913 L150.523918,39.8473913 C146.941566,39.8473913 144.434209,37.122454 145.010613,33.6515995 L147.088549,21.1141354 L135.102227,21.1141354 C133.064639,28.3999021 129.508226,34.1965869 122.553911,39.8473913 L120.455801,37.4692642 C126.519571,32.5120802 129.735906,27.505352 131.522758,21.1141354 L123.738422,21.1141354 L124.297534,17.7423696 Z M154.959347,45 L118.58537,45 C115.003018,45 112.512953,42.1759741 113.080711,38.7574164 L117.461382,12.3420393 L120.991856,12.3420393 L116.611186,38.7574164 C116.337394,40.3923787 117.481556,41.6309866 119.141599,41.6309866 L155.518459,41.6309866 L154.959347,45 Z M122.93722,0.597284238 L121.516384,9.16845067 L117.988791,9.16845067 L119.409627,0.597284238 L122.93722,0.597284238 Z" id="Stroke-11" stroke="#231916" stroke-width="1.4"></path>
                <path d="M191.838244,15.9660509 L200.509059,29.5475287 C203.79917,25.4818938 206.64089,21.0198801 208.805737,15.9660509 L191.838244,15.9660509 Z M206.578058,45.8018106 L199.777923,35.2454735 C196.090827,39.2092611 192.092428,42.5812332 187.962653,45.8018106 L186.006293,43.3244434 C190.184621,40.1038659 194.328676,36.4841571 198.030051,32.4212748 L189.439205,18.988439 L184.02423,46 L180.534198,45.9504527 L188.242541,7.49070223 C189.010805,4.0719354 192.192388,1.29453144 195.73954,1.29453144 L216,1.29453144 L215.448792,4.66650355 L195.185476,4.66650355 C193.643236,4.66650355 192.138124,6.00428187 191.721148,7.58979692 L190.695844,12.5968314 L213.578112,12.5968314 C210.724969,20.573954 206.846522,26.9683142 202.308338,32.3717274 L209.636833,43.7703695 L206.578058,45.8018106 Z M177.189823,45.6531686 L171.532088,45.6531686 C167.984936,45.6531686 165.517353,42.8289699 166.079985,39.4102031 L170.483936,12.5968314 L173.982535,12.5968314 L169.575728,39.4102031 C169.315832,40.9957181 170.441096,42.2839491 172.086152,42.2839491 L177.741031,42.2839491 L177.189823,45.6531686 Z M175.330567,1.88909958 L173.285672,6.20247125 L186.397565,6.20247125 L181.845102,16.0651456 L178.597831,15.1732934 L181.216782,9.57169073 L168.102032,9.57169073 L172.083296,1 L175.330567,1.88909958 Z" id="Fill-13" fill="#231916"></path>
                <path d="M191.838244,15.9660509 L200.509059,29.5475287 C203.79917,25.4818938 206.64089,21.0198801 208.805737,15.9660509 L191.838244,15.9660509 Z M206.578058,45.8018106 L199.777923,35.2454735 C196.090827,39.2092611 192.092428,42.5812332 187.962653,45.8018106 L186.006293,43.3244434 C190.184621,40.1038659 194.328676,36.4841571 198.030051,32.4212748 L189.439205,18.988439 L184.02423,46 L180.534198,45.9504527 L188.242541,7.49070223 C189.010805,4.0719354 192.192388,1.29453144 195.73954,1.29453144 L216,1.29453144 L215.448792,4.66650355 L195.185476,4.66650355 C193.643236,4.66650355 192.138124,6.00428187 191.721148,7.58979692 L190.695844,12.5968314 L213.578112,12.5968314 C210.724969,20.573954 206.846522,26.9683142 202.308338,32.3717274 L209.636833,43.7703695 L206.578058,45.8018106 Z M177.189823,45.6531686 L171.532088,45.6531686 C167.984936,45.6531686 165.517353,42.8289699 166.079985,39.4102031 L170.483936,12.5968314 L173.982535,12.5968314 L169.575728,39.4102031 C169.315832,40.9957181 170.441096,42.2839491 172.086152,42.2839491 L177.741031,42.2839491 L177.189823,45.6531686 Z M175.330567,1.88909958 L173.285672,6.20247125 L186.397565,6.20247125 L181.845102,16.0651456 L178.597831,15.1732934 L181.216782,9.57169073 L168.102032,9.57169073 L172.083296,1 L175.330567,1.88909958 Z" id="Stroke-15" stroke="#231916" stroke-width="1.4"></path>
            </g>
        </g>
    </g>
</svg>