<?xml version="1.0" encoding="UTF-8"?>
<svg width="178px" height="33px" viewBox="0 0 178 33" version="1.1" xmlns="http://www.w3.org/2000/svg" xmlns:xlink="http://www.w3.org/1999/xlink">
    <!-- Generator: Sketch 57.1 (83088) - https://sketch.com -->
    <title>编组 3</title>
    <desc>Created with Sketch.</desc>
    <defs>
        <polygon id="path-1" points="0.125565426 0.0140286263 31.5600052 0.0140286263 31.5600052 29.1887876 0.125565426 29.1887876"></polygon>
        <polygon id="path-3" points="0 0.00748260027 13.2128458 0.00748260027 13.2128458 25.1469393 0 25.1469393"></polygon>
    </defs>
    <g id="pc" stroke="none" stroke-width="1" fill="none" fill-rule="evenodd">
        <g id="Apple-TV" transform="translate(-360.000000, -12.000000)">
            <g id="编组-3" transform="translate(360.000000, 12.000000)">
                <g id="logo">
                    <g id="编组">
                        <path d="M58.3660235,3.28818754 C56.8410824,1.9998792 54.9295529,1.08325711 52.8389647,0.636244951 C46.3766118,-0.746456163 42.3862588,0.821734988 39.0370824,2.72253708 C36.0340235,4.42655025 34.0712,6.94667251 32.9262588,8.82652459 C32.9248471,8.83146785 32.9269647,8.83523414 32.9239059,8.84017741 C32.8488471,8.97011459 32.8057882,9.12147258 32.8057882,9.2822463 C32.8064941,9.76998153 33.2015529,10.1645009 33.6893176,10.1640302 C33.7168471,10.1642656 33.7335529,10.1673257 33.7427294,10.1725043 C39.8966118,9.67982584 45.8170824,11.5702706 50.6126118,15.6171548 C50.7467294,15.7308498 50.8794353,15.8450156 51.0097882,15.960123 C51.0824941,16.0232085 51.1573176,16.0879417 51.2330824,16.1524395 C53.4912,18.0581848 55.8149647,18.748123 57.7773176,18.0960832 C59.6453176,17.4746445 61.0457882,15.7014256 61.6189647,13.230736 C62.5062588,9.40465089 61.3201412,5.78076876 58.3660235,3.28818754" id="Fill-34" fill="#EA5C03"></path>
                        <g transform="translate(13.647059, 3.766295)">
                            <mask id="mask-2" fill="white">
                                <use xlink:href="#path-1"></use>
                            </mask>
                            <g id="Clip-37"></g>
                            <path d="M21.4754118,9.25016217 C15.8314118,9.37633306 9.758,7.32464377 5.17823529,1.88375961 C4.78341176,1.41438507 4.43658824,0.958427964 4.13494118,0.533307396 C3.85588235,0.215055454 3.44788235,0.0135586626 2.99188235,0.0140286263 C2.35517647,0.0147356299 1.81,0.406430328 1.58341176,0.961723472 C1.58129412,0.966902128 1.57494118,0.967137521 1.57211765,0.97184539 C1.402,1.45204802 1.21494118,1.99298217 1.01,2.60312199 C0.0711764706,5.70937393 -0.490235294,10.6041453 1.27564706,15.3706272 C3.04952941,20.157353 5.72058824,24.1077258 11.7787059,27.3326161 C18.386,30.8510419 26.6144706,29.4939987 30.3462353,22.176558 C33.5838824,15.8272905 30.2497647,9.05431483 21.4754118,9.25016217" id="Fill-36" fill="#EA5C03" mask="url(#mask-2)"></path>
                        </g>
                        <g transform="translate(0.000000, 3.679738)">
                            <mask id="mask-4" fill="white">
                                <use xlink:href="#path-3"></use>
                            </mask>
                            <g id="Clip-39"></g>
                            <path d="M12.5050588,17.8770762 C12.4415294,17.718421 12.3744706,17.5439944 12.3090588,17.3719218 C10.3123529,12.047322 10.1723529,6.46120012 11.8855294,1.16343518 C11.886,1.15684416 11.9274118,0.944283878 11.9205882,0.83717986 C11.8921176,0.351798569 11.4747059,-0.0198876852 10.9885882,0.00906570892 C10.8963529,0.0147151517 10.8083529,0.0356651686 10.726,0.0669724972 C9.26364706,0.619676313 7.67258824,1.44873204 6.23211765,2.69514035 C4.29870588,4.3676108 2.33941176,6.39152366 1.10929412,9.84074386 C0.649529412,11.1307 0.311882353,12.5795466 0.105058824,14.1449131 C-0.144352941,16.0419489 0.0518823529,17.9210948 0.674705882,19.5787354 C1.84482353,22.6988756 4.44858824,24.7084294 7.81705882,25.0937685 C9.84835294,25.3258665 11.5358824,24.7912879 12.4455294,23.6237364 C12.6631765,23.3445598 12.838,23.0239539 12.9622353,22.6743947 L12.9622353,22.6736885 C13.3916471,21.470828 13.2671765,19.9014598 12.6045882,18.1345966 C12.5718824,18.0472656 12.5382353,17.961347 12.5050588,17.8770762" id="Fill-38" fill="#EA5C03" mask="url(#mask-4)"></path>
                        </g>
                    </g>
                </g>
                <g id="编组" transform="translate(66.000000, 4.000000)">
                    <path d="M25,3.79588488 L23.0973082,23.7648321 L21.2571463,23.8693512 L23.159838,3.90040394 L25,3.79588488 Z M17.5946879,2.01906084 L17.3698785,17.4399773 L15.5088733,17.6751452 L15.7336827,2.25422873 L17.5946879,2.01906084 Z M19.1996189,24 L9.52239162,24 C7.671808,24 6.38548118,22.5106034 6.6772868,20.7076496 L9.87970462,1 L11.702001,1 L8.50107194,20.7076496 C8.36559076,21.5438021 8.95217961,22.223176 9.80973082,22.223176 L19.4869581,22.223176 L19.1996189,24 Z M7.34873749,3.87427417 C5.59641496,12.6829084 3.63714864,18.7987251 1.7046808,23.7648321 L0,23.3728856 C1.91460219,18.5112977 3.79496189,12.5522595 5.53388518,3.82201464 L7.34873749,3.87427417 Z" id="Fill-1" fill="#231916"></path>
                    <path d="M25,3.79588488 L23.0973082,23.7648321 L21.2571463,23.8693512 L23.159838,3.90040394 L25,3.79588488 Z M17.5946879,2.01906084 L17.3698785,17.4399773 L15.5088733,17.6751452 L15.7336827,2.25422873 L17.5946879,2.01906084 Z M19.1996189,24 L9.52239162,24 C7.671808,24 6.38548118,22.5106034 6.6772868,20.7076496 L9.87970462,1 L11.702001,1 L8.50107194,20.7076496 C8.36559076,21.5438021 8.95217961,22.223176 9.80973082,22.223176 L19.4869581,22.223176 L19.1996189,24 Z M7.34873749,3.87427417 C5.59641496,12.6829084 3.63714864,18.7987251 1.7046808,23.7648321 L0,23.3728856 C1.91460219,18.5112977 3.79496189,12.5522595 5.53388518,3.82201464 L7.34873749,3.87427417 Z" id="Stroke-3" stroke="#231916" stroke-width="0.5"></path>
                    <path d="M49.0571054,0.0263945744 L48.5380974,2.74503574 L52.1100053,2.74503574 C53.9638181,2.74503574 55.250898,4.25099285 54.9585832,6.07368485 L52.609625,20.647889 C52.3173102,22.4691147 50.5440332,23.9736054 48.6902205,23.9736054 L45.6567087,23.9736054 L45.9460407,22.177308 L48.9795525,22.177308 C49.8654453,22.177308 50.6469399,21.4925154 50.7841489,20.647889 L53.1316157,6.07368485 C53.2673333,5.22759211 52.7020919,4.56772774 51.8161991,4.56772774 L48.1637555,4.56772774 C46.4471518,12.726584 44.4904323,18.5348567 41.2212791,24 L39.6433757,23.2873465 C42.7723372,18.0333598 44.6410639,12.4347773 46.3114342,4.56772774 L42.8469073,4.56772774 L43.1407135,2.74503574 L46.7126214,2.74503574 L47.2346121,0 L49.0571054,0.0263945744 Z M41.8059087,2.69371296 L31.3601288,2.69371296 L31.6509522,0.897415531 L42.0967321,0.897415531 L41.8059087,2.69371296 Z M39.7805847,17.1080833 L39.2228003,20.567239 C38.9289941,22.3884646 37.1572085,23.8944217 35.3033958,23.8944217 L28,23.8944217 L32.507017,9.58416326 L29.9552281,9.58416326 L30.2445601,7.78786583 L41.2540899,7.78786583 L40.9647579,9.58416326 L34.3593383,9.58416326 L30.4369509,22.0995906 L35.5927278,22.0995906 C36.4517753,22.0995906 37.2601152,21.4118653 37.3958328,20.567239 L37.9536172,17.1080833 L39.7805847,17.1080833 Z" id="Fill-5" fill="#231916"></path>
                    <path d="M49.0571054,0.0263945744 L48.5380974,2.74503574 L52.1100053,2.74503574 C53.9638181,2.74503574 55.250898,4.25099285 54.9585832,6.07368485 L52.609625,20.647889 C52.3173102,22.4691147 50.5440332,23.9736054 48.6902205,23.9736054 L45.6567087,23.9736054 L45.9460407,22.177308 L48.9795525,22.177308 C49.8654453,22.177308 50.6469399,21.4925154 50.7841489,20.647889 L53.1316157,6.07368485 C53.2673333,5.22759211 52.7020919,4.56772774 51.8161991,4.56772774 L48.1637555,4.56772774 C46.4471518,12.726584 44.4904323,18.5348567 41.2212791,24 L39.6433757,23.2873465 C42.7723372,18.0333598 44.6410639,12.4347773 46.3114342,4.56772774 L42.8469073,4.56772774 L43.1407135,2.74503574 L46.7126214,2.74503574 L47.2346121,0 L49.0571054,0.0263945744 Z M41.8059087,2.69371296 L31.3601288,2.69371296 L31.6509522,0.897415531 L42.0967321,0.897415531 L41.8059087,2.69371296 Z M39.7805847,17.1080833 L39.2228003,20.567239 C38.9289941,22.3884646 37.1572085,23.8944217 35.3033958,23.8944217 L28,23.8944217 L32.507017,9.58416326 L29.9552281,9.58416326 L30.2445601,7.78786583 L41.2540899,7.78786583 L40.9647579,9.58416326 L34.3593383,9.58416326 L30.4369509,22.0995906 L35.5927278,22.0995906 C36.4517753,22.0995906 37.2601152,21.4118653 37.3958328,20.567239 L37.9536172,17.1080833 L39.7805847,17.1080833 Z" id="Stroke-7" stroke="#231916" stroke-width="0.5"></path>
                    <path d="M62.7689533,9.4625971 L70.9028729,9.4625971 L71.6254628,4.91626399 L64.0743245,4.91626399 L67.0544561,0 L68.5835211,0.71490611 L67.1412846,3.11945685 L71.9109667,3.11945685 L72.3892594,0.105694538 L74.1920551,0.105694538 L73.7137624,3.11945685 L81,3.11945685 L80.714496,4.91626399 L73.4282584,4.91626399 L72.7056685,9.4625971 L80.6276675,9.4625971 L80.3421636,11.2608722 L76.2097145,11.2608722 L75.1486405,17.9475197 C75.0176619,18.7666524 75.5974998,19.4536669 76.4451817,19.4536669 L78.8837387,19.4536669 L78.5982347,21.251942 L76.1611494,21.251942 C74.3318637,21.251942 73.0515109,19.7986421 73.3458449,17.9475197 L74.4069189,11.2608722 L68.2862438,11.2608722 C67.2457732,15.1466145 65.4297325,18.2381797 61.8785931,21.251942 L60.8072174,19.9836076 C63.9036108,17.3397761 65.5459944,14.6695211 66.4584298,11.2608722 L62.4834494,11.2608722 L62.7689533,9.4625971 Z M78.4260494,24 L59.8521036,24 C58.0228179,24 56.7512951,22.4938528 57.0412141,20.6706221 L59.2781524,6.58242094 L61.080948,6.58242094 L58.8440097,20.6706221 C58.7042011,21.542602 59.288454,22.2031929 60.1361359,22.2031929 L78.7115533,22.2031929 L78.4260494,24 Z M62.0743252,0.318551593 L61.3487919,4.88984036 L59.5474679,4.88984036 L60.2730012,0.318551593 L62.0743252,0.318551593 Z" id="Fill-9" fill="#231916"></path>
                    <path d="M62.7689533,9.4625971 L70.9028729,9.4625971 L71.6254628,4.91626399 L64.0743245,4.91626399 L67.0544561,0 L68.5835211,0.71490611 L67.1412846,3.11945685 L71.9109667,3.11945685 L72.3892594,0.105694538 L74.1920551,0.105694538 L73.7137624,3.11945685 L81,3.11945685 L80.714496,4.91626399 L73.4282584,4.91626399 L72.7056685,9.4625971 L80.6276675,9.4625971 L80.3421636,11.2608722 L76.2097145,11.2608722 L75.1486405,17.9475197 C75.0176619,18.7666524 75.5974998,19.4536669 76.4451817,19.4536669 L78.8837387,19.4536669 L78.5982347,21.251942 L76.1611494,21.251942 C74.3318637,21.251942 73.0515109,19.7986421 73.3458449,17.9475197 L74.4069189,11.2608722 L68.2862438,11.2608722 C67.2457732,15.1466145 65.4297325,18.2381797 61.8785931,21.251942 L60.8072174,19.9836076 C63.9036108,17.3397761 65.5459944,14.6695211 66.4584298,11.2608722 L62.4834494,11.2608722 L62.7689533,9.4625971 Z M78.4260494,24 L59.8521036,24 C58.0228179,24 56.7512951,22.4938528 57.0412141,20.6706221 L59.2781524,6.58242094 L61.080948,6.58242094 L58.8440097,20.6706221 C58.7042011,21.542602 59.288454,22.2031929 60.1361359,22.2031929 L78.7115533,22.2031929 L78.4260494,24 Z M62.0743252,0.318551593 L61.3487919,4.88984036 L59.5474679,4.88984036 L60.2730012,0.318551593 L62.0743252,0.318551593 Z" id="Stroke-11" stroke="#231916" stroke-width="0.5"></path>
                    <path d="M98.435887,8.98189381 L102.944711,16.2253487 C104.655568,14.05701 106.133263,11.6772694 107.258983,8.98189381 L98.435887,8.98189381 Z M106.10059,24.894299 L102.56452,19.2642525 C100.64723,21.3782726 98.5680627,23.1766577 96.4205795,24.894299 L95.4032725,23.5730365 C97.5760027,21.8553952 99.7309114,19.9248838 101.655627,17.7580132 L97.1883864,10.5938341 L94.3725994,25 L92.5577831,24.9735747 L96.5661213,4.46170785 C96.9656185,2.63836555 98.6200419,1.15708344 100.464561,1.15708344 L111,1.15708344 L110.713372,2.95546856 L100.176447,2.95546856 C99.3744827,2.95546856 98.5918246,3.66895033 98.3749971,4.51455836 L97.8418391,7.18497676 L109.740618,7.18497676 C108.256984,11.4394421 106.240191,14.8497676 103.880336,17.731588 L107.691153,23.8108637 L106.10059,24.894299 Z M90.8187079,24.8150232 L87.8766857,24.8150232 C86.0321669,24.8150232 84.7490235,23.3087839 85.0415921,21.4854416 L87.3316467,7.18497676 L89.1509184,7.18497676 L86.8593786,21.4854416 C86.7242327,22.3310497 87.3093699,23.0181062 88.1647989,23.0181062 L91.105336,23.0181062 L90.8187079,24.8150232 Z M89.8518949,1.47418644 L88.7885492,3.77465133 L95.6067339,3.77465133 L93.239453,9.03474431 L91.5508719,8.5590898 L92.9127267,5.57156839 L86.0930569,5.57156839 L88.1633138,1 L89.8518949,1.47418644 Z" id="Fill-13" fill="#231916"></path>
                    <path d="M98.435887,8.98189381 L102.944711,16.2253487 C104.655568,14.05701 106.133263,11.6772694 107.258983,8.98189381 L98.435887,8.98189381 Z M106.10059,24.894299 L102.56452,19.2642525 C100.64723,21.3782726 98.5680627,23.1766577 96.4205795,24.894299 L95.4032725,23.5730365 C97.5760027,21.8553952 99.7309114,19.9248838 101.655627,17.7580132 L97.1883864,10.5938341 L94.3725994,25 L92.5577831,24.9735747 L96.5661213,4.46170785 C96.9656185,2.63836555 98.6200419,1.15708344 100.464561,1.15708344 L111,1.15708344 L110.713372,2.95546856 L100.176447,2.95546856 C99.3744827,2.95546856 98.5918246,3.66895033 98.3749971,4.51455836 L97.8418391,7.18497676 L109.740618,7.18497676 C108.256984,11.4394421 106.240191,14.8497676 103.880336,17.731588 L107.691153,23.8108637 L106.10059,24.894299 Z M90.8187079,24.8150232 L87.8766857,24.8150232 C86.0321669,24.8150232 84.7490235,23.3087839 85.0415921,21.4854416 L87.3316467,7.18497676 L89.1509184,7.18497676 L86.8593786,21.4854416 C86.7242327,22.3310497 87.3093699,23.0181062 88.1647989,23.0181062 L91.105336,23.0181062 L90.8187079,24.8150232 Z M89.8518949,1.47418644 L88.7885492,3.77465133 L95.6067339,3.77465133 L93.239453,9.03474431 L91.5508719,8.5590898 L92.9127267,5.57156839 L86.0930569,5.57156839 L88.1633138,1 L89.8518949,1.47418644 Z" id="Stroke-15" stroke="#231916" stroke-width="0.5"></path>
                </g>
            </g>
        </g>
    </g>
</svg>