<?xml version="1.0" encoding="UTF-8"?>
<svg width="152px" height="109px" viewBox="0 0 152 109" version="1.1" xmlns="http://www.w3.org/2000/svg" xmlns:xlink="http://www.w3.org/1999/xlink">
    <!-- Generator: Sketch 57.1 (83088) - https://sketch.com -->
    <title>icon备份</title>
    <desc>Created with Sketch.</desc>
    <defs>
        <polygon id="path-1" points="0.255013468 0.027857037 64.0958789 0.027857037 64.0958789 57.9609946 0.255013468 57.9609946"></polygon>
        <polygon id="path-3" points="0 0.0148584093 26.8342466 0.0148584093 26.8342466 49.9349831 0 49.9349831"></polygon>
    </defs>
    <g id="icon备份" stroke="none" stroke-width="1" fill="none" fill-rule="evenodd">
        <g id="编组-2备份">
            <g id="logo" transform="translate(15.000000, 0.000000)">
                <g id="编组">
                    <path d="M118.536786,6.31111682 C115.439751,3.75288679 111.557585,1.93272459 107.311766,1.04508001 C94.1872372,-1.7005884 86.0831454,1.41341278 79.2812324,5.18788884 C73.182257,8.57159561 69.1959174,13.5758731 66.8706322,17.3087481 C66.867765,17.3185641 66.8720658,17.3260429 66.8658536,17.3358589 C66.713415,17.5938788 66.625966,17.8944346 66.625966,18.2136875 C66.6273996,19.182197 67.4297328,19.9656053 68.4203445,19.9646705 C68.4762545,19.9651379 68.5101828,19.9712144 68.5288195,19.9814978 C81.0268688,19.0031723 93.0508771,22.7570816 102.790219,30.793093 C103.062601,31.0188605 103.332116,31.2455627 103.596853,31.4741347 C103.744513,31.5994053 103.896473,31.7279478 104.050346,31.8560229 C108.636404,35.6403149 113.355787,37.0103446 117.341171,35.7155707 C121.134931,34.4815625 123.979177,30.960432 125.143253,26.0543143 C126.945277,18.4567497 124.536366,11.2607053 118.536786,6.31111682" id="Fill-34" fill="#EA5C03"></path>
                    <g transform="translate(27.716099, 7.260509)">
                        <mask id="mask-2" fill="white">
                            <use xlink:href="#path-1"></use>
                        </mask>
                        <g id="Clip-37"></g>
                        <path d="M43.6148659,18.3683066 C32.1523474,18.6188477 19.8177276,14.5447507 10.5165871,3.74063432 C9.71473166,2.80858413 9.01036045,1.9031773 8.39773909,1.05900346 C7.83099265,0.42704165 7.00237686,0.0269238168 6.07627686,0.027857037 C4.78317748,0.0292609537 3.67596711,0.807060107 3.21578429,1.90972129 C3.21148351,1.92000469 3.19858119,1.92047212 3.19284683,1.92982066 C2.84735132,2.88337251 2.46744961,3.95752062 2.05123026,5.16909238 C0.144553793,11.337264 -0.99562918,21.0569489 2.59073847,30.5218858 C6.19335348,40.0270215 11.6180631,47.8713877 23.9216217,54.2751427 C37.3405145,61.2617797 54.0518886,58.5670609 61.6308081,44.0366135 C68.2062137,31.4286949 61.434884,17.979407 43.6148659,18.3683066" id="Fill-36" fill="#EA5C03" mask="url(#mask-2)"></path>
                    </g>
                    <g transform="translate(0.000000, 7.088629)">
                        <mask id="mask-4" fill="white">
                            <use xlink:href="#path-3"></use>
                        </mask>
                        <g id="Clip-39"></g>
                        <path d="M25.3967872,35.4990118 C25.267764,35.1839658 25.1315728,34.8376021 24.9987267,34.4959127 C20.9435747,23.9227054 20.6592457,12.8301864 24.1385719,2.31026588 C24.1395276,2.29717792 24.2236317,1.875091 24.2097736,1.66241154 C24.1519521,0.698576291 23.3042217,-0.0394915346 22.3169552,0.0180020326 C22.1296326,0.0292202896 21.9509115,0.070821326 21.7836592,0.132989167 C18.8137358,1.23050864 15.582421,2.87678786 12.6569389,5.35181582 C8.73033228,8.67288732 4.7511606,12.6918279 2.25288878,19.5410412 C1.31914296,22.1025432 0.633408437,24.9795587 0.213366176,28.0879508 C-0.293169427,31.854948 0.105368963,35.5864207 1.37027438,38.8780443 C3.74669094,45.0737942 9.0347315,49.0642217 15.8758293,49.8294003 C20.0012273,50.2902837 23.4284663,49.2287561 25.2758877,46.9103163 C25.7179117,46.3559475 26.0729645,45.7193114 26.3252765,45.0251817 L26.3252765,45.0237795 C27.1973779,42.6352256 26.944588,39.5188873 25.5989236,36.0103774 C25.5325005,35.8369618 25.464166,35.6663508 25.3967872,35.4990118" id="Fill-38" fill="#EA5C03" mask="url(#mask-4)"></path>
                    </g>
                </g>
            </g>
            <g id="编组" transform="translate(0.000000, 77.000000)">
                <path d="M35,4.64680636 L32.4123392,30.6932593 L29.9097189,30.8295885 L32.4973797,4.78313557 L35,4.64680636 Z M24.9287756,2.3292098 L24.6230348,22.4434486 L22.0920677,22.7501893 L22.3978085,2.63595052 L24.9287756,2.3292098 Z M27.1114817,31 L13.9504526,31 C11.4336589,31 9.68425441,29.0573088 10.0811101,26.7056299 L14.4363983,1 L16.9147213,1 L12.5614578,26.7056299 C12.3772034,27.7962636 13.1749643,28.6824034 14.3412339,28.6824034 L27.502263,28.6824034 L27.1114817,31 Z M10.994283,4.74905327 C8.61112434,16.2385761 5.94652215,24.2157284 3.31836589,30.6932593 L1,30.1820247 C3.60385898,23.840823 6.16114817,16.0681646 8.52608385,4.68088866 L10.994283,4.74905327 Z" id="Fill-1" fill="#231916"></path>
                <path d="M35,4.64680636 L32.4123392,30.6932593 L29.9097189,30.8295885 L32.4973797,4.78313557 L35,4.64680636 Z M24.9287756,2.3292098 L24.6230348,22.4434486 L22.0920677,22.7501893 L22.3978085,2.63595052 L24.9287756,2.3292098 Z M27.1114817,31 L13.9504526,31 C11.4336589,31 9.68425441,29.0573088 10.0811101,26.7056299 L14.4363983,1 L16.9147213,1 L12.5614578,26.7056299 C12.3772034,27.7962636 13.1749643,28.6824034 14.3412339,28.6824034 L27.502263,28.6824034 L27.1114817,31 Z M10.994283,4.74905327 C8.61112434,16.2385761 5.94652215,24.2157284 3.31836589,30.6932593 L1,30.1820247 C3.60385898,23.840823 6.16114817,16.0681646 8.52608385,4.68088866 L10.994283,4.74905327 Z" id="Stroke-3" stroke="#231916" stroke-width="0.5"></path>
                <path d="M67.0761405,0.034092992 L66.3841299,3.54567117 L71.1466738,3.54567117 C73.6184241,3.54567117 75.3345307,5.49086577 74.9447776,7.84517627 L71.8128333,26.67019 C71.4230803,29.0226065 69.0587109,30.965907 66.5869606,30.965907 L62.5422783,30.965907 L62.9280543,28.6456895 L66.9727366,28.6456895 C68.153927,28.6456895 69.1959199,27.7611658 69.3788652,26.67019 L72.508821,7.84517627 C72.6897777,6.75230647 71.9361226,5.89998167 70.7549322,5.89998167 L65.8850074,5.89998167 C63.5962024,16.4385043 60.9872431,23.9408566 56.6283721,31 L54.5245009,30.0794892 C58.6964496,23.2930898 61.1880852,16.0615873 63.4152456,5.89998167 L58.7958764,5.89998167 L59.187618,3.54567117 L63.9501618,3.54567117 L64.6461494,0 L67.0761405,0.034092992 Z M57.4078782,3.47937924 L43.4801717,3.47937924 L43.8679362,1.15916173 L57.7956427,1.15916173 L57.4078782,3.47937924 Z M54.7074463,22.097941 L53.9637338,26.566017 C53.5719922,28.9184334 51.2096113,30.863628 48.737861,30.863628 L39,30.863628 L45.0093559,12.3795442 L41.6069708,12.3795442 L41.9927468,10.0593267 L56.6721199,10.0593267 L56.2863439,12.3795442 L47.4791177,12.3795442 L42.2492679,28.5453046 L49.123637,28.5453046 C50.2690338,28.5453046 51.3468203,27.6569927 51.5277771,26.566017 L52.2714896,22.097941 L54.7074463,22.097941 Z" id="Fill-5" fill="#231916"></path>
                <path d="M67.0761405,0.034092992 L66.3841299,3.54567117 L71.1466738,3.54567117 C73.6184241,3.54567117 75.3345307,5.49086577 74.9447776,7.84517627 L71.8128333,26.67019 C71.4230803,29.0226065 69.0587109,30.965907 66.5869606,30.965907 L62.5422783,30.965907 L62.9280543,28.6456895 L66.9727366,28.6456895 C68.153927,28.6456895 69.1959199,27.7611658 69.3788652,26.67019 L72.508821,7.84517627 C72.6897777,6.75230647 71.9361226,5.89998167 70.7549322,5.89998167 L65.8850074,5.89998167 C63.5962024,16.4385043 60.9872431,23.9408566 56.6283721,31 L54.5245009,30.0794892 C58.6964496,23.2930898 61.1880852,16.0615873 63.4152456,5.89998167 L58.7958764,5.89998167 L59.187618,3.54567117 L63.9501618,3.54567117 L64.6461494,0 L67.0761405,0.034092992 Z M57.4078782,3.47937924 L43.4801717,3.47937924 L43.8679362,1.15916173 L57.7956427,1.15916173 L57.4078782,3.47937924 Z M54.7074463,22.097941 L53.9637338,26.566017 C53.5719922,28.9184334 51.2096113,30.863628 48.737861,30.863628 L39,30.863628 L45.0093559,12.3795442 L41.6069708,12.3795442 L41.9927468,10.0593267 L56.6721199,10.0593267 L56.2863439,12.3795442 L47.4791177,12.3795442 L42.2492679,28.5453046 L49.123637,28.5453046 C50.2690338,28.5453046 51.3468203,27.6569927 51.5277771,26.566017 L52.2714896,22.097941 L54.7074463,22.097941 Z" id="Stroke-7" stroke="#231916" stroke-width="0.5"></path>
                <path d="M85.9323108,12.2225213 L97.1164502,12.2225213 L98.1100113,6.35017432 L87.7271962,6.35017432 L91.8248771,0 L93.9273415,0.923420393 L91.9442663,4.02929843 L98.5025793,4.02929843 L99.1602317,0.136522111 L101.639076,0.136522111 L100.981423,4.02929843 L111,4.02929843 L110.607432,6.35017432 L100.588855,6.35017432 L99.5952942,12.2225213 L110.488043,12.2225213 L110.095475,14.5452933 L104.413357,14.5452933 L102.954381,23.182213 C102.774285,24.2402593 103.571562,25.1276531 104.737125,25.1276531 L108.090141,25.1276531 L107.697573,27.4504251 L104.34658,27.4504251 C101.831313,27.4504251 100.070827,25.5732461 100.475537,23.182213 L101.934513,14.5452933 L93.5185852,14.5452933 C92.0879381,19.564377 89.5908822,23.5576488 84.7080655,27.4504251 L83.2349239,25.8121598 C87.4924649,22.3972108 89.7507423,18.9481314 91.0053409,14.5452933 L85.5397429,14.5452933 L85.9323108,12.2225213 Z M107.460818,31 L81.9216425,31 C79.4063747,31 77.6580308,29.0545599 78.0566694,26.6995535 L81.1324595,8.50229372 L83.6113035,8.50229372 L80.5355134,26.6995535 C80.3432765,27.8258609 81.1466243,28.6791241 82.3121869,28.6791241 L107.853386,28.6791241 L107.460818,31 Z M84.9771971,0.411462475 L83.9795889,6.31604379 L81.5027684,6.31604379 L82.5003767,0.411462475 L84.9771971,0.411462475 Z" id="Fill-9" fill="#231916"></path>
                <path d="M85.9323108,12.2225213 L97.1164502,12.2225213 L98.1100113,6.35017432 L87.7271962,6.35017432 L91.8248771,0 L93.9273415,0.923420393 L91.9442663,4.02929843 L98.5025793,4.02929843 L99.1602317,0.136522111 L101.639076,0.136522111 L100.981423,4.02929843 L111,4.02929843 L110.607432,6.35017432 L100.588855,6.35017432 L99.5952942,12.2225213 L110.488043,12.2225213 L110.095475,14.5452933 L104.413357,14.5452933 L102.954381,23.182213 C102.774285,24.2402593 103.571562,25.1276531 104.737125,25.1276531 L108.090141,25.1276531 L107.697573,27.4504251 L104.34658,27.4504251 C101.831313,27.4504251 100.070827,25.5732461 100.475537,23.182213 L101.934513,14.5452933 L93.5185852,14.5452933 C92.0879381,19.564377 89.5908822,23.5576488 84.7080655,27.4504251 L83.2349239,25.8121598 C87.4924649,22.3972108 89.7507423,18.9481314 91.0053409,14.5452933 L85.5397429,14.5452933 L85.9323108,12.2225213 Z M107.460818,31 L81.9216425,31 C79.4063747,31 77.6580308,29.0545599 78.0566694,26.6995535 L81.1324595,8.50229372 L83.6113035,8.50229372 L80.5355134,26.6995535 C80.3432765,27.8258609 81.1466243,28.6791241 82.3121869,28.6791241 L107.853386,28.6791241 L107.460818,31 Z M84.9771971,0.411462475 L83.9795889,6.31604379 L81.5027684,6.31604379 L82.5003767,0.411462475 L84.9771971,0.411462475 Z" id="Stroke-11" stroke="#231916" stroke-width="0.5"></path>
                <path d="M135.086771,11.3099462 L141.156341,20.6660754 C143.459419,17.8653046 145.448623,14.791473 146.964016,11.3099462 L135.086771,11.3099462 Z M145.40464,31.8634695 L140.644546,24.5913262 C138.063579,27.3219354 135.2647,29.6448495 132.373857,31.8634695 L131.004405,30.1568388 C133.929234,27.9382187 136.830073,25.4446415 139.421036,22.6457671 L133.407443,13.3920357 L129.616961,32 L127.173939,31.9658674 L132.569779,5.47137264 C133.107563,3.11622217 135.334672,1.20289944 137.817678,1.20289944 L152,1.20289944 L151.614154,3.52581356 L137.429833,3.52581356 C136.350265,3.52581356 135.296687,4.44739418 135.004804,5.53963788 L134.287091,8.98892831 L150.304679,8.98892831 C148.307478,14.4842794 145.592565,18.8892831 142.415837,22.6116345 L147.545783,30.4640323 L145.40464,31.8634695 Z M124.832876,31.7610717 L120.872461,31.7610717 C118.389456,31.7610717 116.662147,29.8155126 117.055989,27.4603621 L120.138755,8.98892831 L122.587775,8.98892831 L119.50301,27.4603621 C119.321083,28.5526058 120.108767,29.4400538 121.260306,29.4400538 L125.218722,29.4400538 L124.832876,31.7610717 Z M123.531397,1.61249082 L122.09997,4.58392464 L131.278296,4.58392464 L128.091571,11.3782114 L125.818481,10.7638243 L127.651747,6.9049425 L118.471423,6.9049425 L121.258307,1 L123.531397,1.61249082 Z" id="Fill-13" fill="#231916"></path>
                <path d="M135.086771,11.3099462 L141.156341,20.6660754 C143.459419,17.8653046 145.448623,14.791473 146.964016,11.3099462 L135.086771,11.3099462 Z M145.40464,31.8634695 L140.644546,24.5913262 C138.063579,27.3219354 135.2647,29.6448495 132.373857,31.8634695 L131.004405,30.1568388 C133.929234,27.9382187 136.830073,25.4446415 139.421036,22.6457671 L133.407443,13.3920357 L129.616961,32 L127.173939,31.9658674 L132.569779,5.47137264 C133.107563,3.11622217 135.334672,1.20289944 137.817678,1.20289944 L152,1.20289944 L151.614154,3.52581356 L137.429833,3.52581356 C136.350265,3.52581356 135.296687,4.44739418 135.004804,5.53963788 L134.287091,8.98892831 L150.304679,8.98892831 C148.307478,14.4842794 145.592565,18.8892831 142.415837,22.6116345 L147.545783,30.4640323 L145.40464,31.8634695 Z M124.832876,31.7610717 L120.872461,31.7610717 C118.389456,31.7610717 116.662147,29.8155126 117.055989,27.4603621 L120.138755,8.98892831 L122.587775,8.98892831 L119.50301,27.4603621 C119.321083,28.5526058 120.108767,29.4400538 121.260306,29.4400538 L125.218722,29.4400538 L124.832876,31.7610717 Z M123.531397,1.61249082 L122.09997,4.58392464 L131.278296,4.58392464 L128.091571,11.3782114 L125.818481,10.7638243 L127.651747,6.9049425 L118.471423,6.9049425 L121.258307,1 L123.531397,1.61249082 Z" id="Stroke-15" stroke="#231916" stroke-width="0.5"></path>
            </g>
        </g>
    </g>
</svg>