<?xml version="1.0" encoding="UTF-8"?>
<svg width="247px" height="69px" viewBox="0 0 247 69" version="1.1" xmlns="http://www.w3.org/2000/svg" xmlns:xlink="http://www.w3.org/1999/xlink">
    <!-- Generator: Sketch 57.1 (83088) - https://sketch.com -->
    <title>编组</title>
    <desc>Created with Sketch.</desc>
    <defs>
        <polygon id="path-1" points="0 0 247 0 247 69 0 69"></polygon>
    </defs>
    <g id="app" stroke="none" stroke-width="1" fill="none" fill-rule="evenodd">
        <g id="登录" transform="translate(-84.000000, -176.000000)">
            <g id="编组" transform="translate(84.000000, 176.000000)">
                <mask id="mask-2" fill="white">
                    <use xlink:href="#path-1"></use>
                </mask>
                <g id="Clip-2"></g>
                <path
                        d="M241.182971,54.7665363 C244.395761,54.7665363 247,57.3791695 247,60.6023148 C247,63.8254601 244.395761,66.4380933 241.182971,66.4380933 C237.970181,66.4380933 235.365942,63.8254601 235.365942,60.6023148 C235.365942,57.3791695 237.970181,54.7665363 241.182971,54.7665363 L241.182971,54.7665363 Z M106.49056,50.7272798 C106.491455,50.8017982 106.494587,50.8758677 106.496377,50.950835 C106.734875,61.0377536 101.589937,66.7554698 101.589937,66.7554698 L93.9673913,61.9490329 C93.9673913,61.9490329 97.5999022,57.7468235 97.5359149,50.7272798 L106.49056,50.7272798 Z M0,61.9490329 C0,61.9490329 3.63251087,57.7468235 3.56852355,50.7272798 L3.57971014,50.7272798 L3.57971014,8.97812071 L12.5289855,8.97812071 L12.5289855,50.950835 C12.7674837,61.0377536 7.62254529,66.7554698 7.62254529,66.7554698 L0,61.9490329 Z M37.1394928,11.6715569 C33.9267029,11.6715569 31.3224638,9.0589238 31.3224638,5.83577846 C31.3224638,2.61263313 33.9267029,0 37.1394928,0 C40.3522826,0 42.9565217,2.61263313 42.9565217,5.83577846 C42.9565217,9.0589238 40.3522826,11.6715569 37.1394928,11.6715569 L37.1394928,11.6715569 Z M25.057971,66.8757766 C20.6218152,66.6562616 17.0353931,63.1965428 16.6009058,58.8066907 L16.5561594,58.8066907 L16.5561594,57.9088786 L16.5561594,57.9088786 L16.5561594,0 L25.5054348,0 L25.5054348,57.9088786 L45.1938406,57.9088786 L45.1938406,66.8869993 L25.057971,66.8869993 L25.057971,66.8757766 Z M48.326087,66.8869993 L57.2753623,66.8869993 L57.2753623,8.97812071 L48.326087,8.97812071 L48.326087,66.8869993 Z M67.567029,10.7737449 L89.4927536,10.7737449 L89.4927536,1.79562414 L67.567029,1.79562414 L67.567029,10.7737449 Z M80.990942,66.8641051 L80.990942,66.8869993 L67.567029,66.8869993 L67.567029,57.9088786 L67.567029,25.587644 L63.9873188,25.587644 L63.9873188,16.6095233 L89.4927536,16.6095233 L89.4927536,25.587644 L76.5163043,25.587644 L76.5163043,57.9088786 L80.5434783,57.9088786 L80.5434783,49.3796639 L89.4927536,49.3796639 L89.4927536,57.9088786 C89.4927536,62.7157644 85.7242138,66.6288783 80.990942,66.8641051 L80.990942,66.8641051 Z M113.208333,8.97812071 C118.151018,8.97812071 122.157609,12.9976254 122.157609,17.9562414 L113.208333,17.9562414 L113.208333,8.97812071 Z M106.496377,50.726382 L97.5471014,50.726382 L97.5471014,17.9562414 L93.0724638,17.9562414 L93.0724638,8.97812071 L97.5471014,8.97812071 L97.5471014,0 L106.496377,0 L106.496377,8.97812071 L113.208333,8.97812071 L113.208333,17.9562414 L106.496377,17.9562414 L106.496377,50.726382 Z M113.208333,50.726382 L122.157609,50.726382 L122.157609,17.9562414 L113.208333,17.9562414 L113.208333,50.726382 Z M109.628623,61.9490329 C109.628623,61.9490329 113.261134,57.7468235 113.197147,50.7272798 L122.151792,50.7272798 C122.152687,50.8017982 122.155819,50.8758677 122.157609,50.950835 C122.396107,61.0377536 117.251168,66.7554698 117.251168,66.7554698 L109.628623,61.9490329 Z M132.449275,10.7737449 L141.398551,10.7737449 L141.398551,1.79562414 L132.449275,1.79562414 L132.449275,10.7737449 Z M147.350714,66.8869993 C143.923589,66.9682513 141.002545,66.4246261 138.638147,65.6718107 C137.522172,67.8431691 136.492111,69 136.492111,69 L128.869565,64.1935631 C128.869565,64.1935631 132.502076,59.9913537 132.438089,52.97181 L132.449275,52.97181 L132.449275,22.8942078 L128.869565,22.8942078 L128.869565,13.9160871 L132.449275,13.9160871 L141.398551,13.9160871 L141.398551,53.4198182 L141.396761,53.4198182 C141.416002,54.6426383 141.354252,55.7985713 141.235226,56.8885152 C142.954382,57.472093 145.082072,57.9201012 147.573998,57.8976559 L147.573998,57.9088786 L153.988839,57.9088786 L149.005435,54.7665363 C149.005435,54.7665363 152.637946,50.5643269 152.573958,43.5447833 L152.585145,43.5447833 L152.585145,31.8723285 L145.873188,31.8723285 L145.873188,22.8942078 L159.297101,22.8942078 L159.297101,18.4051475 L147.21558,18.4051475 L147.21558,17.0584293 L147.21558,9.42702675 L147.21558,5.38687243 L156.164855,5.38687243 L156.164855,9.42702675 L159.297101,9.42702675 L159.297101,0 L168.246377,0 L168.246377,9.42702675 L180.327899,9.42702675 L180.327899,18.4051475 L168.246377,18.4051475 L168.246377,22.8942078 L181.222826,22.8942078 L181.222826,31.8723285 L174.958333,31.8723285 L174.958333,43.0949794 L183.012681,43.0949794 L183.012681,52.0731001 L174.51087,52.0731001 L174.51087,52.0515526 C170.076056,51.8311398 166.488739,48.3817458 166.054699,43.9927915 L166.009058,43.9927915 L166.009058,43.0949794 L166.009058,31.8723285 L161.53442,31.8723285 L161.53442,43.9927915 L161.53263,43.9927915 C161.638679,50.7815975 159.315,55.5584066 157.82942,57.9088786 L184.802536,57.9088786 L184.802536,66.8869993 L147.350714,66.8869993 Z M199.121377,22.8942078 L190.172101,22.8942078 L190.172101,8.97812071 C190.172101,4.32251622 193.70438,0.495592263 198.226449,0.0453395096 L198.226449,0 L210.755435,0 L210.755435,8.97812071 L199.121377,8.97812071 L199.121377,22.8942078 Z M194.428377,66.3137463 L194.365732,66.3501077 C194.311141,66.38198 194.255656,66.4093633 194.200618,66.4407867 L189.720163,58.5992961 C189.85127,58.5261244 189.983719,58.4587885 190.113484,58.3829234 C196.86258,54.4455685 200.96806,47.6634961 201.814214,40.4015432 L201.806159,40.4015432 L201.806159,11.6715569 L210.755435,11.6715569 L210.755435,40.4015432 L210.724112,40.4015432 C209.820683,50.8336706 204.076143,60.6709974 194.428377,66.3137463 L194.428377,66.3137463 Z M235.531056,29.6277983 L222.389493,29.6277983 L222.389493,53.4489971 C230.264855,48.7727429 235.548507,40.1717033 235.548507,30.3249494 C235.548507,30.0910694 235.538663,29.8598828 235.531056,29.6277983 L235.531056,29.6277983 Z M213.431716,65.617493 L213.383389,56.7866135 C213.40263,56.7830222 213.420976,56.7785332 213.440217,56.7753908 L213.440217,0 L220.152174,0 L222.389493,0 L236.26087,0 L244.315217,0 C244.315217,4.65515559 240.782938,8.48207954 236.26087,8.9327812 L236.26087,8.97812071 L222.389493,8.97812071 L222.389493,20.6496776 L244.315217,20.6496776 L244.315217,29.6277983 L244.312085,29.6277983 C244.314322,29.7018678 244.317902,29.7754884 244.317902,29.8500068 C244.317902,48.0589823 230.892647,63.1152908 213.431716,65.617493 L213.431716,65.617493 Z" id="Fill-1" fill="#fff" mask="url(#mask-2)"></path>
            </g>
        </g>
    </g>
</svg>
