<?xml version="1.0" encoding="UTF-8"?>
<svg width="64px" height="64px" viewBox="17 15 30 30" version="1.1" xmlns="http://www.w3.org/2000/svg"
     xmlns:xlink="http://www.w3.org/1999/xlink">
    <!-- Generator: Sketch 57.1 (83088) - https://sketch.com -->
    <title>icon</title>
    <desc>Created with Sketch.</desc>
    <defs>
        <linearGradient x1="50%" y1="50%" x2="50%" y2="100%" id="linearGradient-1">
            <stop stop-color="#FF9F00" offset="0%"></stop>
            <stop stop-color="#FF6600" offset="100%"></stop>
        </linearGradient>
    </defs>
    <g id="icon" stroke="none" stroke-width="1" fill="none" fill-rule="evenodd">
        <path d="M46.6707543,19.0281535 C47.0224812,18.7175318 47.1104129,18.1442259 46.8466178,17.7458268 C46.5390178,17.304025 46.0117496,17.2155998 45.6158958,17.5249259 L38.9343737,22.3662841 C38.5852328,22.1119036 38.2227866,21.8765215 37.8485941,21.6611501 L44.7369008,16.6856967 C45.1765594,16.3763706 45.2644911,15.8024169 44.9556027,15.4040178 C44.6476807,14.9622159 44.1204124,14.8737908 43.7248808,15.1831169 L35.9475941,20.7882352 C34.6637925,20.3264566 33.3106399,20.0899147 31.9471841,20.0889315 C26.3575612,20.0889315 21.5660878,23.9261945 20.2851192,29.326283 L19.6850577,29.326283 C18.674004,29.326283 17.8813301,30.2102106 18.0146771,31.2269379 C18.8936722,38.4311587 24.6958772,44 31.7275158,44 C38.7591544,44 44.5613594,38.4311587 45.4403545,31.2269379 C45.572091,30.2102106 44.7810277,29.326283 43.769974,29.326283 L43.6089269,29.326283 C43.0851389,27.1363096 41.9588713,25.1388468 40.3589963,23.5624529 L46.6707543,19.0281535 Z M40.6495253,29.0603597 L23.201038,29.0603597 C22.7178967,29.0603597 22.3658478,28.5301327 22.5858381,28.0886547 C24.1679648,24.3760939 27.8160038,21.8567867 31.9471841,21.8567867 C36.0783643,21.8567867 39.7267254,24.3760939 41.3088521,28.0886547 C41.4847156,28.5317522 41.1329887,29.0610075 40.6495253,29.0610075 L40.6495253,29.0603597 Z" id="形状备份-3" fill="url(#linearGradient-1)" fill-rule="nonzero"></path>
    </g>
</svg>
