<?xml version="1.0" encoding="UTF-8"?>
<svg width="25px" height="35px" viewBox="18 14 28 38" version="1.1" xmlns="http://www.w3.org/2000/svg"
     xmlns:xlink="http://www.w3.org/1999/xlink">
    <!-- Generator: Sketch 57.1 (83088) - https://sketch.com -->
    <title>icon</title>
    <desc>Created with Sketch.</desc>
    <g id="icon" stroke="none" stroke-width="1" fill="none" fill-rule="evenodd">
        <g id="编组备份-12" transform="translate(19.000000, 15.000000)" fill="#FFFFFF" fill-rule="nonzero">
            <path d="M7.31292517,35 L4.98866213,35 C4.19501134,35 3.51473923,34.3225806 3.51473923,33.4758065 L3.51473923,18.3467742 C1.36054422,17.6693548 0,16.2580645 0,14.6774194 L0,1.35483871 C0,0.620967742 0.680272109,0 1.4739229,0 L2.04081633,0 C2.83446712,0 3.51473923,0.620967742 3.51473923,1.35483871 L3.51473923,9.37096774 L4.36507937,9.37096774 L4.36507937,1.35483871 C4.36507937,0.620967742 5.04535147,0 5.83900227,0 L6.40589569,0 C7.19954649,0 7.87981859,0.620967742 7.87981859,1.35483871 L7.87981859,9.37096774 L8.73015873,9.37096774 L8.73015873,1.35483871 C8.73015873,0.620967742 9.41043084,0 10.2040816,0 L10.7709751,0 C11.5646259,0 12.244898,0.620967742 12.244898,1.35483871 L12.244898,14.6774194 C12.244898,16.3145161 10.8843537,17.7258065 8.73015873,18.3467742 L8.73015873,33.4758065 C8.78684807,34.3225806 8.10657596,35 7.31292517,35 L7.31292517,35 Z M23.4693878,35 L21.3718821,35 C20.5782313,35 19.8979592,34.3225806 19.8979592,33.4758065 L19.8979592,22.4677419 L18.0839002,22.4677419 C17.3469388,22.4677419 16.723356,21.7903226 16.723356,20.9435484 L16.723356,7.79032258 C16.723356,3.78225806 19.6145125,0.451612903 23.5260771,0.0564516129 L23.5827664,0.0564516129 C24.3764172,0.0564516129 25,0.733870968 25,1.58064516 L25,33.5887097 C24.9433107,34.3225806 24.2630385,35 23.4693878,35 Z" id="形状"></path>
        </g>
    </g>
</svg>
