<?xml version="1.0" encoding="UTF-8"?>
<svg width="64px" height="64px" viewBox="16 18 32 28" version="1.1" xmlns="http://www.w3.org/2000/svg"
     xmlns:xlink="http://www.w3.org/1999/xlink">
    <!-- Generator: Sketch 57.1 (83088) - https://sketch.com -->
    <title>icon</title>
    <desc>Created with Sketch.</desc>
    <defs>
        <linearGradient x1="50%" y1="0%" x2="50%" y2="100%" id="linearGradient-1">
            <stop stop-color="#FF9F00" offset="0%"></stop>
            <stop stop-color="#FF6600" offset="100%"></stop>
        </linearGradient>
    </defs>
    <g id="icon" stroke="none" stroke-width="1" fill="none" fill-rule="evenodd">
        <g id="编组备份-17" transform="translate(18.000000, 21.000000)" fill="url(#linearGradient-1)" fill-rule="nonzero">
            <path d="M23.2875,0 C25.3378125,0 27,1.68857142 27,3.77142856 L27,18.2285714 C27,20.3114286 25.3378125,22 23.2875,22 L3.71250002,22 C1.66218752,22 0,20.3114286 0,18.2285714 L0,3.77142856 C0,1.68857142 1.66218749,0 3.71250002,0 L23.2875,0 Z M7.0125,4.18969029 C6.49059091,4.18969029 6.06091212,4.59084315 6.00594121,5.10618753 L6,5.21826172 L6,16.5766602 C6,17.1447245 6.45331169,17.6052316 7.0125,17.6052316 C7.53440909,17.6052316 7.96408788,17.2040787 8.01905879,16.6887343 L8.025,16.5766602 L8.025,5.21826172 C8.025,4.6501974 7.57168831,4.18969029 7.0125,4.18969029 Z M11.3458333,4.18969029 C10.8239242,4.18969029 10.3942455,4.59084315 10.3392745,5.10618753 L10.3333333,5.21826172 L10.3333333,16.5766602 C10.3333333,17.1447245 10.786645,17.6052316 11.3458333,17.6052316 C11.8677424,17.6052316 12.2974212,17.2040787 12.3523921,16.6887343 L12.3583333,16.5766602 L12.3583333,5.21826172 C12.3583333,4.6501974 11.9050216,4.18969029 11.3458333,4.18969029 Z M15.6791667,4.18969029 C15.1572576,4.18969029 14.7275788,4.59084315 14.6726079,5.10618753 L14.6666667,5.21826172 L14.6666667,16.5766602 C14.6666667,17.1447245 15.1199784,17.6052316 15.6791667,17.6052316 C16.2010758,17.6052316 16.6307545,17.2040787 16.6857255,16.6887343 L16.6916667,16.5766602 L16.6916667,5.21826172 C16.6916667,4.6501974 16.238355,4.18969029 15.6791667,4.18969029 Z M20.0125,4.18969029 C19.4533117,4.18969029 19,4.6501974 19,5.21826172 L19,5.21826172 L19,16.5766602 C19,17.1447245 19.4533117,17.6052316 20.0125,17.6052316 C20.5716883,17.6052316 21.025,17.1447245 21.025,16.5766602 L21.025,16.5766602 L21.025,5.21826172 C21.025,4.6501974 20.5716883,4.18969029 20.0125,4.18969029 Z" id="形状"></path>
        </g>
    </g>
</svg>
