<?xml version="1.0" encoding="UTF-8"?>
<svg width="64px" height="64px" viewBox="16 18 32 28" version="1.1" xmlns="http://www.w3.org/2000/svg"
     xmlns:xlink="http://www.w3.org/1999/xlink">
    <!-- Generator: Sketch 57.1 (83088) - https://sketch.com -->
    <title>icon</title>
    <desc>Created with Sketch.</desc>
    <g id="icon" stroke="none" stroke-width="1" fill="none" fill-rule="evenodd">
        <g id="编组备份-12" transform="translate(18.000000, 21.000000)" fill="#BFBFBF" fill-rule="nonzero">
            <path d="M3.71250002,0 L23.2875,0 C25.3378125,0 27,1.68857142 27,3.77142856 L27,18.2285714 C27,20.3114286 25.3378125,22 23.2875,22 L3.71250002,22 C1.66218752,22 0,20.3114286 0,18.2285714 L0,3.77142856 C0,1.68857142 1.66218749,0 3.71250002,0 Z M3.71250002,2.05714286 C3.26494719,2.05714286 2.83572496,2.23775457 2.51925731,2.55924551 C2.20278967,2.88073644 2.025,3.31677172 2.025,3.77142856 L2.025,18.2285714 C2.025,18.6832283 2.20278967,19.1192636 2.51925731,19.4407545 C2.83572496,19.7622454 3.26494719,19.9428571 3.71250002,19.9428571 L23.2875,19.9428571 C23.7350528,19.9428571 24.164275,19.7622454 24.4807427,19.4407545 C24.7972103,19.1192636 24.975,18.6832283 24.975,18.2285714 L24.975,3.77142856 C24.975,3.31677172 24.7972103,2.88073644 24.4807427,2.55924551 C24.164275,2.23775457 23.7350528,2.05714286 23.2875,2.05714286 L3.71250002,2.05714286 Z M6,5.21826172 C6,4.6501974 6.45331169,4.18969029 7.0125,4.18969029 C7.57168831,4.18969029 8.025,4.6501974 8.025,5.21826172 L8.025,16.5766602 C8.025,17.1447245 7.57168831,17.6052316 7.0125,17.6052316 C6.45331169,17.6052316 6,17.1447245 6,16.5766602 L6,5.21826172 Z M10.3333333,5.21826172 C10.3333333,4.6501974 10.786645,4.18969029 11.3458333,4.18969029 C11.9050216,4.18969029 12.3583333,4.6501974 12.3583333,5.21826172 L12.3583333,16.5766602 C12.3583333,17.1447245 11.9050216,17.6052316 11.3458333,17.6052316 C10.786645,17.6052316 10.3333333,17.1447245 10.3333333,16.5766602 L10.3333333,5.21826172 Z M14.6666667,5.21826172 C14.6666667,4.6501974 15.1199784,4.18969029 15.6791667,4.18969029 C16.238355,4.18969029 16.6916667,4.6501974 16.6916667,5.21826172 L16.6916667,16.5766602 C16.6916667,17.1447245 16.238355,17.6052316 15.6791667,17.6052316 C15.1199784,17.6052316 14.6666667,17.1447245 14.6666667,16.5766602 L14.6666667,5.21826172 Z M19,5.21826172 C19,4.6501974 19.4533117,4.18969029 20.0125,4.18969029 C20.5716883,4.18969029 21.025,4.6501974 21.025,5.21826172 L21.025,16.5766602 C21.025,17.1447245 20.5716883,17.6052316 20.0125,17.6052316 C19.4533117,17.6052316 19,17.1447245 19,16.5766602 L19,5.21826172 Z" id="形状"></path>
        </g>
    </g>
</svg>
