<?xml version="1.0" encoding="UTF-8"?>
<svg width="64px" height="64px" viewBox="21 22 21 21" version="1.1" xmlns="http://www.w3.org/2000/svg"
     xmlns:xlink="http://www.w3.org/1999/xlink">
    <!-- Generator: Sketch 57.1 (83088) - https://sketch.com -->
    <title>icon</title>
    <desc>Created with Sketch.</desc>
    <defs>
        <linearGradient x1="50%" y1="0%" x2="50%" y2="100%" id="linearGradient-1">
            <stop stop-color="#FF9F00" offset="0%"></stop>
            <stop stop-color="#FF6600" offset="100%"></stop>
        </linearGradient>
    </defs>
    <g id="icon" stroke="none" stroke-width="1" fill="none" fill-rule="evenodd">
        <g id="编组备份-4" transform="translate(22.000000, 23.000000)" fill="url(#linearGradient-1)" fill-rule="nonzero">
            <path d="M9.5,0 C14.7466125,0 19,4.25338749 19,9.5 C19,14.7466125 14.7466125,19 9.5,19 C4.25338751,19 0,14.7466125 0,9.5 C0,4.25338751 4.25338751,0 9.5,0 Z M13.566,6.6207875 C13.4322824,6.48723617 13.2509838,6.41228097 13.0619962,6.41241442 C12.8730085,6.41254822 12.6918161,6.48775971 12.5582875,6.6215 L8.31820001,10.868 L6.44028749,8.99792501 C6.16086578,8.72398065 5.71280491,8.72664698 5.43666325,9.00389739 C5.16052159,9.28114779 5.15965069,9.72921575 5.43471251,10.0075375 L7.81683749,12.379925 C8.09540716,12.6573625 8.54605415,12.6567248 8.8238375,12.3785 L13.5667125,7.62850001 C13.7002638,7.4947824 13.775219,7.31348385 13.7750856,7.12449617 C13.7749518,6.9355085 13.6997403,6.75431612 13.566,6.6207875 L13.566,6.6207875 Z" id="形状"></path>
        </g>
    </g>
</svg>
