<?xml version="1.0" encoding="UTF-8"?>
<svg width="64px" height="64px" viewBox="18 18 28 28" version="1.1" xmlns="http://www.w3.org/2000/svg"
     xmlns:xlink="http://www.w3.org/1999/xlink">
    <!-- Generator: Sketch 57.1 (83088) - https://sketch.com -->
    <title>icon</title>
    <desc>Created with Sketch.</desc>
    <g id="icon" stroke="none" stroke-width="1" fill="none" fill-rule="evenodd">
        <g id="编组备份-12" transform="translate(20.000000, 20.000000)" fill="#BFBFBF" fill-rule="nonzero">
            <path d="M12,24 C5.37270001,24 0,18.6273 0,12 C0,5.37270001 5.37270001,0 12,0 C18.6273,0 24,5.37269999 24,12 C24,18.6273 18.6273,24 12,24 Z M12,22.2 C17.6334,22.2 22.2,17.6334 22.2,12 C22.2,6.3666 17.6334,1.8 12,1.8 C6.3666,1.8 1.8,6.3666 1.8,12 C1.8,17.6334 6.3666,22.2 12,22.2 Z M7.9743,16.8462 C7.72255941,16.6419942 7.60007901,16.3181904 7.65365255,15.998498 C7.70722608,15.6788057 7.92857592,15.4126204 8.23313517,15.3016385 C8.53769441,15.1906565 8.8784057,15.2520258 9.12509999,15.4623 C9.93200932,16.1347191 10.9496449,16.5020363 12,16.5 C13.0656,16.5 14.0721,16.1295 14.874,15.4626 C15.1212635,15.2570294 15.4594151,15.1989878 15.7610762,15.310339 C16.0627373,15.4216902 16.2820786,15.6855172 16.3364762,16.002439 C16.3908738,16.3193608 16.2720635,16.6412294 16.0248,16.8468 C14.8948221,17.7876639 13.4703982,18.3019684 12,18.3000059 C10.5292179,18.3020109 9.10443222,17.7874784 7.9743,16.8462 Z" id="形状"></path>
        </g>
    </g>
</svg>
