<?xml version="1.0" encoding="UTF-8"?>
<svg width="64px" height="64px" viewBox="22 22 20 20" version="1.1" xmlns="http://www.w3.org/2000/svg"
     xmlns:xlink="http://www.w3.org/1999/xlink">
    <!-- Generator: Sketch 57.1 (83088) - https://sketch.com -->
    <title>icon</title>
    <desc>Created with Sketch.</desc>
    <defs>
        <linearGradient x1="50%" y1="0%" x2="50%" y2="100%" id="linearGradient-1">
            <stop stop-color="#ccc" offset="0%"></stop>
            <stop stop-color="#ccc" offset="100%"></stop>
        </linearGradient>
    </defs>
    <g id="icon" stroke="none" stroke-width="1" fill="none" fill-rule="evenodd">
        <g id="编组备份-18" transform="translate(31.500000, 32.000000) scale(1, -1) translate(-31.500000, -32.000000) translate(22.000000, 22.000000)" fill="url(#linearGradient-1)" fill-rule="nonzero">
            <path d="M12.062001,7.55570109 C12.4507236,5.81917414 12.7221806,4.56318612 12.8768713,3.78524202 C13.2660928,1.82665917 12.2553643,0.00779689839 10.2521208,0.00779689839 C8.44573353,0.00779689839 7.5385479,0.905501497 7.00361777,2.69991268 L6.98989521,2.75230789 C6.66878743,4.20390471 6.17776946,5.32915419 5.52781935,6.1342939 C4.84326116,6.9844498 3.81840435,7.48916325 2.72717066,7.51353544 L2.21469562,7.52451347 C0.992639713,7.55071108 0.0155938202,8.5566991 0.0155938202,9.78898454 L0.0155938202,17.2233658 C0.0155938202,18.7390843 1.2344062,19.9678768 2.73814869,19.9678768 L12.3873503,19.9678768 C14.3693862,19.9678768 16.1385978,18.7148827 16.811003,16.8353917 L18.815494,11.2313498 C19.3254741,9.8054516 18.5924401,8.23259731 17.178019,7.71837575 C16.8819669,7.61074017 16.5693778,7.55568666 16.2543663,7.55570109 L12.062001,7.55570109 Z" id="形状"></path>
        </g>
    </g>
</svg>
