<?xml version="1.0" encoding="UTF-8"?>
<svg width="64px" height="64px" viewBox="22 22 20 20" version="1.1" xmlns="http://www.w3.org/2000/svg"
     xmlns:xlink="http://www.w3.org/1999/xlink">
    <!-- Generator: Sketch 57.1 (83088) - https://sketch.com -->
    <title>icon</title>
    <desc>Created with Sketch.</desc>
    <g id="icon" stroke="none" stroke-width="1" fill="none" fill-rule="evenodd">
        <g id="编组备份-11" transform="translate(31.520958, 32.000000) scale(1, -1) translate(-31.520958, -32.000000) translate(22.000000, 22.000000)" fill="#BFBFBF" fill-rule="nonzero">
            <path d="M12.062001,7.55570109 C12.4507236,5.81917414 12.7221806,4.56318612 12.8768713,3.78524202 C13.2660928,1.82665917 12.2553643,0.00779689839 10.2521208,0.00779689839 C8.44573353,0.00779689839 7.5385479,0.905501497 7.00361777,2.69991268 L6.98989521,2.75230789 C6.66878743,4.20390471 6.17776946,5.32915419 5.52781935,6.1342939 C4.84326116,6.9844498 3.81840435,7.48916325 2.72717066,7.51353544 L2.21469562,7.52451347 C0.992639713,7.55071108 0.0155938202,8.5566991 0.0155938202,9.78898454 L0.0155938202,17.2233658 C0.0155938202,18.7390843 1.2344062,19.9678768 2.73814869,19.9678768 L12.3873503,19.9678768 C14.3693862,19.9678768 16.1385978,18.7148827 16.811003,16.8353917 L18.815494,11.2313498 C19.3254741,9.8054516 18.5924401,8.23259731 17.178019,7.71837575 C16.8819669,7.61074017 16.5693778,7.55568666 16.2543663,7.55570109 L12.062001,7.55570109 Z M10.2511228,1.50480289 C11.1692864,1.50480289 11.6428393,2.3580963 11.4180389,3.49132983 C11.2408932,4.3835454 10.9038174,5.93394461 10.4070609,8.13828593 C10.301522,8.60659929 10.6540669,9.05270708 11.1301148,9.05270708 L16.2448852,9.05270708 C16.3875998,9.05270708 16.5293164,9.07765719 16.6637974,9.12680887 C17.3057635,9.36034181 17.6385978,10.0754117 17.4070609,10.7236153 L15.4055639,16.3274077 C14.9462325,17.6138348 13.7374002,18.4708708 12.3831088,18.4708708 L2.74837825,18.4708708 C2.06574352,18.4708708 1.51259981,17.912238 1.51259981,17.2233658 L1.51259981,9.78898454 C1.51259981,9.37107036 1.84343813,9.0300025 2.25711078,9.02126995 L2.76858783,9.01029192 C4.29467345,8.97586639 5.72761435,8.2690755 6.68375749,7.07915419 C7.48715071,6.0826472 8.06724053,4.75629989 8.43500498,3.10560131 C8.79728043,1.90250749 9.20546407,1.50480289 10.2513723,1.50480289 L10.2511228,1.50480289 Z" id="形状"></path>
        </g>
    </g>
</svg>
