<?xml version="1.0" encoding="UTF-8"?>
<svg width="62px" height="32px" viewBox="0 0 62 32" version="1.1" xmlns="http://www.w3.org/2000/svg" xmlns:xlink="http://www.w3.org/1999/xlink">
    <!-- Generator: Sketch 57.1 (83088) - https://sketch.com -->
    <title>编组 2</title>
    <desc>Created with Sketch.</desc>
    <defs>
        <polygon id="path-1" points="0.125482817 0.0135064422 31.539242 0.0135064422 31.539242 28.1023004 0.125482817 28.1023004"></polygon>
        <polygon id="path-3" points="0 0.00720407725 13.2041531 0.00720407725 13.2041531 24.2109009 0 24.2109009"></polygon>
    </defs>
    <g id="app" stroke="none" stroke-width="1" fill="none" fill-rule="evenodd" opacity="1">
        <g id="登录" transform="translate(-181.000000, -673.000000)">
            <g id="编组-2" transform="translate(181.000000, 673.000000)">
                <g id="logo">
                    <g id="编组">
                        <path d="M58.3276248,3.05993543 C56.8036869,1.81958148 54.8934151,0.937078591 52.8042022,0.506705458 C46.3461008,-0.824527707 42.3583731,0.685291045 39.0114001,2.51534004 C36.0103169,4.15592514 34.0487847,6.5822415 32.9045968,8.3921203 C32.903186,8.39687956 32.9053022,8.40050566 32.9022454,8.40526492 C32.827236,8.53036548 32.7842055,8.67608951 32.7842055,8.83087879 C32.7849109,9.30045917 33.1797098,9.68029349 33.6671536,9.67984022 C33.6946649,9.68006685 33.7113598,9.68301306 33.7205302,9.68799896 C39.870364,9.21365932 45.7869395,11.0337365 50.579314,14.9299845 C50.7133434,15.0394475 50.845962,15.1493638 50.9762292,15.2601865 C51.0488872,15.3209238 51.1236615,15.3832474 51.1993764,15.4453444 C53.4560084,17.2801527 55.7782443,17.9444095 57.7393063,17.3166404 C59.6060773,16.7183333 61.0056265,15.0111186 61.5784259,12.6323948 C62.4651363,8.94872715 61.279799,5.4597359 58.3276248,3.05993543" id="Fill-34" fill="#ff6600"></path>
                        <g transform="translate(13.638080, 3.520247)">
                            <mask id="mask-2" fill="white">
                                <use xlink:href="#path-1"></use>
                            </mask>
                            <g id="Clip-37"></g>
                            <path d="M21.4612832,8.90584563 C15.8209964,9.02732009 9.75158026,7.05200033 5.17482856,1.81364088 C4.78026478,1.36173776 4.43366943,0.922752631 4.13222082,0.513456224 C3.85334559,0.207050497 3.44561401,0.0130539718 2.98991401,0.0135064422 C2.35362701,0.0141871291 1.80880921,0.39130187 1.58237005,0.925925472 C1.58025379,0.930911364 1.57390503,0.931137995 1.57108336,0.935670624 C1.40107763,1.39799879 1.21414187,1.91879788 1.00933553,2.50622661 C0.071129644,5.49685528 -0.489912771,10.2094298 1.27480782,14.7984901 C3.04752314,19.4070407 5.71682469,23.2103698 11.7709567,26.3152207 C18.3739039,29.7026811 26.5969611,28.3961507 30.3262707,21.3510853 C33.5617877,15.2381551 30.2298635,8.71728826 21.4612832,8.90584563" id="Fill-36" fill="#ff6600" mask="url(#mask-2)"></path>
                        </g>
                        <g transform="translate(0.000000, 3.436911)">
                            <mask id="mask-4" fill="white">
                                <use xlink:href="#path-3"></use>
                            </mask>
                            <g id="Clip-39"></g>
                            <path
                                    d="M12.4968318,17.2116421 C12.4333442,17.0588925 12.3663295,16.8909586 12.3009608,16.725291 C10.3055685,11.5988875 10.1656606,6.22069643 11.87771,1.12012891 C11.8781803,1.11378323 11.9195648,0.909135028 11.9127457,0.806017716 C11.8842939,0.338703656 11.4671567,-0.0191474107 10.9813589,0.00872825824 C10.8891843,0.0141674132 10.8012422,0.0343376126 10.7189434,0.0644795961 C9.25755255,0.596610252 7.66754048,1.39480624 6.22801757,2.59481979 C4.29587779,4.20503628 2.33787268,6.15361352 1.10856432,9.47444423 C0.64910209,10.7163846 0.311677167,12.1113012 0.104989706,13.6184004 C-0.144257972,15.4448233 0.0518482198,17.2540222 0.674261997,18.8499609 C1.84360983,21.8539608 4.44566153,23.7887135 7.81191602,24.1597092 C9.84187376,24.3831679 11.528293,23.8684878 12.4373416,22.7443958 C12.6548454,22.4756109 12.8295539,22.1669389 12.9537075,21.8303911 L12.9537075,21.8297113 C13.3828368,20.6716245 13.2584481,19.1606726 12.5962957,17.4595769 C12.5636114,17.3754966 12.5299865,17.2927762 12.4968318,17.2116421" id="Fill-38" fill="#ff6600" mask="url(#mask-4)"></path>
                        </g>
                    </g>
                </g>
            </g>
        </g>
    </g>
</svg>
