<?xml version="1.0" encoding="UTF-8"?>
<svg width="28px" height="28px" viewBox="19 17 28 28" version="1.1" xmlns="http://www.w3.org/2000/svg"
     xmlns:xlink="http://www.w3.org/1999/xlink">
    <!-- Generator: Sketch 57.1 (83088) - https://sketch.com -->
    <title>画板</title>
    <desc>Created with Sketch.</desc>
    <g id="画板" stroke="none" stroke-width="1" fill="none" fill-rule="evenodd">
        <g id="编组备份-4" transform="translate(22.000000, 18.000000)" fill="#fff" fill-rule="nonzero">
            <path d="M17.578125,0.00930058594 C19.3861607,0.00930058594 20.8519345,1.47507439 20.8519345,3.28311013 L20.8519345,14.2950149 C20.8519345,14.7881263 20.4521888,15.187872 19.9590774,15.187872 C19.465966,15.187872 19.0662202,14.7881263 19.0662202,14.2950149 L19.0662202,3.28311013 C19.0662202,2.88844273 18.9094392,2.50993988 18.6303672,2.23086788 C18.3512952,1.95179589 17.9727924,1.79501487 17.578125,1.79501487 L3.29241071,1.79501487 C2.89774332,1.79501487 2.51924047,1.95179589 2.24016848,2.23086788 C1.96109649,2.50993988 1.80431548,2.88844273 1.80431549,3.28311013 L1.80431549,20.5450149 C1.80431548,20.9396823 1.96109649,21.3181851 2.24016848,21.5972571 C2.51924047,21.8763291 2.89774332,22.0331101 3.29241071,22.0331101 L9.84002977,22.0331101 C10.3331412,22.0331101 10.7328869,22.4328559 10.7328869,22.9259673 C10.7328869,23.4190787 10.3331412,23.8188244 9.84002977,23.8188244 L3.29241071,23.8188244 C1.484375,23.8188244 0.0186011998,22.3530506 0.0186011998,20.5450149 L0.0186011998,3.28311013 C0.0186011998,1.47507441 1.484375,0.00930058594 3.29241071,0.00930058594 L17.578125,0.00930058594 Z M11.6257441,12.8069196 C12.1188554,12.8069196 12.5186012,13.2066654 12.5186012,13.6997768 C12.5186012,14.1928882 12.1188554,14.5926339 11.6257441,14.5926339 L5.67336309,14.5926339 C5.1802517,14.5926339 4.78050594,14.1928882 4.78050594,13.6997768 C4.78050594,13.2066654 5.1802517,12.8069196 5.67336309,12.8069196 L11.6257441,12.8069196 Z M15.1971726,8.04501487 C15.690284,8.04501487 16.0900298,8.44476063 16.0900298,8.93787201 C16.0900298,9.4309834 15.690284,9.83072916 15.1971726,9.83072916 L5.67336309,9.83072916 C5.1802517,9.83072916 4.78050594,9.4309834 4.78050594,8.93787201 C4.78050594,8.44476063 5.1802517,8.04501487 5.67336309,8.04501487 L15.1971726,8.04501487 Z" id="形状"></path>
            <path d="M19.483871,20.5483871 L22.0645161,20.5483871 C22.5989853,20.5483871 23.0322581,20.9816599 23.0322581,21.5161291 C23.0322581,22.0505982 22.5989853,22.483871 22.0645161,22.483871 L19.483871,22.483871 L19.483871,25.0645161 C19.483871,25.5989853 19.0505981,26.0322581 18.516129,26.0322581 C17.9816599,26.0322581 17.5483871,25.5989853 17.5483871,25.0645161 L17.5483871,22.483871 L14.9677419,22.483871 C14.4332728,22.483871 14,22.0505982 14,21.5161291 C14,20.9816599 14.4332728,20.5483871 14.9677419,20.5483871 L17.5483871,20.5483871 L17.5483871,17.9677419 C17.5483871,17.4332728 17.9816599,17 18.516129,17 C19.0505981,17 19.483871,17.4332728 19.483871,17.9677419 L19.483871,20.5483871 Z" id="形状备份"></path>
        </g>
    </g>
</svg>
