<?xml version="1.0" encoding="UTF-8"?>
<svg width="28px" height="28px" viewBox="18 17 28 28" version="1.1" xmlns="http://www.w3.org/2000/svg">
    <!-- Generator: Sketch 57.1 (83088) - https://sketch.com -->
    <title>画板</title>
    <desc>Created with Sketch.</desc>
    <g id="画板" stroke="none" stroke-width="1" fill="none" fill-rule="evenodd">
        <g id="编组备份-5" transform="translate(18.000000, 20.000000)" fill="#999999" fill-rule="nonzero">
            <path d="M13.5531678,12.102226 C13.6517979,11.9621575 13.7846747,11.847774 13.9394692,11.7710616 C14.422522,11.4750156 15.0468354,11.5572673 15.4367295,11.9683219 L18.5644692,15.2686644 C18.9430726,15.6820454 18.9204377,16.3226049 18.5136003,16.7082314 C18.106763,17.0938579 17.4659098,17.0821949 17.0733733,16.6820205 L15.4216609,14.9395548 L15.4216609,22.9666096 C15.4216609,23.5340254 14.9616795,23.9940068 14.3942637,23.9940068 C13.8268478,23.9940068 13.3668664,23.5340254 13.3668664,22.9666096 L13.3668664,15.1142123 L11.6774829,16.7200342 C11.411369,16.9729342 11.030549,17.0646534 10.6784742,16.9606419 C10.3263995,16.8566305 10.0565584,16.5726903 9.97059753,16.2157789 C9.88463667,15.8588675 9.99561554,15.4832082 10.2617295,15.2303082 L13.5531678,12.102226 L13.5531678,12.102226 Z M13.7093322,0.0214041203 C17.6589897,0.0214041203 21.036387,2.77277398 22.0384418,6.58613014 C25.0202911,6.6375 27.4079623,9.14229452 27.4079623,12.207363 C27.4079623,15.3046233 24.9706336,17.8296233 21.9456336,17.8296233 C21.3782177,17.8296233 20.9182363,17.3696419 20.9182363,16.802226 C20.9182363,16.2348102 21.3782177,15.7748288 21.9456336,15.7748288 C23.8192637,15.7748288 25.3531678,14.1857877 25.3531678,12.207363 C25.3531678,10.2292808 23.8192637,8.64023974 21.9456336,8.64023974 C21.7576199,8.64023974 21.5723459,8.65599317 21.3901541,8.68715753 C21.1186709,8.73361469 20.8399026,8.66912052 20.616409,8.50814845 C20.3929154,8.34717637 20.2434141,8.10320791 20.2014555,7.83099314 C19.6922089,4.52825342 16.9428938,2.07619864 13.7093322,2.07619864 C11.3387842,2.07619864 9.18467466,3.3946918 8.01446918,5.49914384 C7.82107938,5.84685558 7.44431412,6.05164831 7.04734588,6.02482876 C6.94563355,6.01797945 6.8432363,6.01455478 6.7401541,6.01455478 C4.16686644,6.01455478 2.06549656,8.19160958 2.06549656,10.8946918 C2.06549656,13.597774 4.16686644,15.7748288 6.7401541,15.7748288 C7.30756994,15.7748288 7.76755136,16.2348102 7.76755136,16.802226 C7.76755136,17.3696419 7.30756994,17.8296233 6.7401541,17.8296233 C3.01515411,17.8296233 0.0107020441,14.7166096 0.0107020441,10.8946918 C0.0107020441,7.1402397 2.90967464,4.07037669 6.54289382,3.96284246 C8.12577056,1.53133562 10.7880993,0.0214041203 13.7093322,0.0214041203 Z" id="形状"></path>
        </g>
    </g>
</svg>
