<?xml version="1.0" encoding="UTF-8"?>
<svg width="28px" height="28px" viewBox="18 17 28 28" version="1.1" xmlns="http://www.w3.org/2000/svg">
    <title>画板</title>
    <desc>Created with Sketch.</desc>
    <g id="画板" stroke="none" stroke-width="1" fill="none" fill-rule="evenodd">
        <g id="编组备份-3" transform="translate(20.000000, 18.000000)" fill="#fff" fill-rule="nonzero">
            <path d="M11.9573353,0.00935627807 C15.5950599,0.00935627807 18.5441617,2.95845808 18.5441617,6.59618263 C18.5441617,8.96115269 17.2980539,11.0348054 15.426497,12.196482 C16.7211914,12.5 17.3247356,12.699707 18.2429835,13.5080619 C18.4847736,13.7209153 18.6021552,14.0387211 18.5441617,14.3543701 C18.4861681,14.6700191 18.2641832,14.9307516 17.9618263,15.0383522 C17.6594695,15.1459528 17.3247356,15.0801029 17.0783129,14.876026 C15.426497,13.5080619 14.3744739,13.4783359 11.9573353,13.4824102 C6.66152695,13.4824102 2.26152696,17.5431886 1.81482036,22.7848054 C1.76762421,23.2747124 1.33495435,23.6353947 0.844553698,23.5936393 C0.354153046,23.5518838 -0.0113095551,23.1232441 0.0250000094,22.6324102 C0.449251516,17.6551647 3.89985031,13.584506 8.48907185,12.1967814 C6.61751497,11.0357036 5.37050897,8.96145211 5.37050897,6.59618263 C5.37050897,2.95845808 8.31961078,0.00935627807 11.9573353,0.00935627807 Z M11.9573353,1.80576346 C9.31152696,1.80576346 7.16691616,3.95037423 7.16691616,6.59618263 C7.16691616,9.24199104 9.31152693,11.3866018 11.9573353,11.3866018 C14.6031437,11.3866018 16.7477545,9.24199104 16.7477545,6.59618263 C16.7477545,3.95037423 14.6031437,1.80576346 11.9573353,1.80576346 Z" id="形状"></path>
            <path d="M22.483871,19.5483871 L25.0645161,19.5483871 C25.5989853,19.5483871 26.0322581,19.9816599 26.0322581,20.5161291 C26.0322581,21.0505982 25.5989853,21.483871 25.0645161,21.483871 L22.483871,21.483871 L22.483871,24.0645161 C22.483871,24.5989853 22.0505981,25.0322581 21.516129,25.0322581 C20.9816599,25.0322581 20.5483871,24.5989853 20.5483871,24.0645161 L20.5483871,21.483871 L17.9677419,21.483871 C17.4332728,21.483871 17,21.0505982 17,20.5161291 C17,19.9816599 17.4332728,19.5483871 17.9677419,19.5483871 L20.5483871,19.5483871 L20.5483871,16.9677419 C20.5483871,16.4332728 20.9816599,16 21.516129,16 C22.0505981,16 22.483871,16.4332728 22.483871,16.9677419 L22.483871,19.5483871 Z" id="形状"></path>
        </g>
    </g>
</svg>
