<?xml version="1.0" encoding="UTF-8"?>
<svg width="28px" height="24px" viewBox="0 0 28 24" version="1.1" xmlns="http://www.w3.org/2000/svg" xmlns:xlink="http://www.w3.org/1999/xlink">
    <!-- Generator: Sketch 57.1 (83088) - https://sketch.com -->
    <title>编组备份 2</title>
    <desc>Created with Sketch.</desc>
    <g id="pc" stroke="none" stroke-width="1" fill="none" fill-rule="evenodd">
        <g id="画板" transform="translate(-18.000000, -20.000000)" fill="#fff" fill-rule="nonzero">
            <g id="编组备份-2" transform="translate(18.000000, 20.000000)">
                <path d="M15.4216609,20.6094178 L17.0733733,18.8464041 C17.25955,18.6465981 17.5181489,18.5299016 17.7911496,18.5224971 C18.0641502,18.5150926 18.3286945,18.6176001 18.5254281,18.8070205 C18.9374438,19.2040588 18.9548222,19.8581861 18.5644692,20.2765411 L15.4367295,23.6155822 C15.2192592,23.8490044 14.9171101,23.9852444 14.5981931,23.993681 C14.279276,24.0021176 13.9703464,23.8820431 13.740839,23.6604452 L10.2617295,20.3148972 C9.85030394,19.9172892 9.83384066,19.2631785 10.2247432,18.8453767 C10.4111762,18.6455936 10.6700483,18.5290749 10.9432157,18.5219913 C11.2163831,18.5149078 11.4809462,18.6178532 11.6774829,18.8077055 L13.3668664,20.4330479 L13.3668664,12.0101028 C13.3668664,11.4361302 13.8267979,10.9707192 14.3942637,10.9707192 C14.9617295,10.9707192 15.4216609,11.4364726 15.4216609,12.0101028 L15.4216609,20.6094178 Z M13.7093322,0.0214041203 C17.6589897,0.0214041203 21.036387,2.80530822 22.0384418,6.66352741 C25.0202911,6.71489727 27.4079623,9.24948631 27.4079623,12.3508562 C27.4079623,15.4844178 24.9706336,18.0392123 21.9456336,18.0392123 C21.3781678,18.0392123 20.9182363,17.5738014 20.9182363,16.9998288 C20.9182363,16.4258562 21.3781678,15.9604452 21.9456336,15.9604452 C23.8192637,15.9604452 25.3531678,14.3525685 25.3531678,12.3508562 C25.3531678,10.3494863 23.8192637,8.74160959 21.9456336,8.74160959 C21.7576199,8.74160959 21.5723459,8.75770547 21.3901541,8.78921234 C20.8244007,8.88715756 20.2887842,8.49708904 20.2014555,7.92277397 C19.6922089,4.58133561 16.9428938,2.1005137 13.7093322,2.1005137 C11.3387842,2.1005137 9.18467466,3.43407534 8.01446918,5.56352739 C7.82337095,5.91425426 7.44589137,6.12197497 7.04734588,6.09571917 C6.94509522,6.08880278 6.84263839,6.08537613 6.7401541,6.08544519 C4.16686644,6.08544519 2.06549656,8.2875 2.06549656,11.022774 C2.06549656,13.7577055 4.16686644,15.9604452 6.7401541,15.9604452 C7.30761986,15.9604452 7.76755136,16.4258562 7.76755136,16.9998288 C7.76755136,17.5738014 7.30761986,18.0392123 6.7401541,18.0392123 C3.01515411,18.0392123 0.0107020441,14.8898973 0.0107020441,11.022774 C0.0107020441,7.22414384 2.90967464,4.11797947 6.54289382,4.00907533 C8.12577056,1.54880137 10.7880993,0.0214041203 13.7093322,0.0214041203 Z" id="形状"></path>
            </g>
        </g>
    </g>
</svg>
