<?xml version="1.0" encoding="UTF-8"?>
<svg width="28px" height="28px" viewBox="18 17 28 28" version="1.1" xmlns="http://www.w3.org/2000/svg">
    <title>画板</title>
    <desc>Created with Sketch.</desc>
    <g id="画板" stroke="none" stroke-width="1" fill="none" fill-rule="evenodd">
        <g id="编组备份-2" transform="translate(18.000000, 23.000000)" fill="#fff" fill-rule="nonzero">
            <path d="M19.2857143,0.833333333 L7.71428571,0.833333333 C3.47142857,0.833333333 0,4.43333333 0,8.83333333 C0,13.2333333 3.47142857,16.8333333 7.71428571,16.8333333 L19.2857143,16.8333333 C23.5285714,16.8333333 27,13.2333333 27,8.83333333 C27,4.43333333 23.5285714,0.833333333 19.2857143,0.833333333 Z M19.6433287,15.2268099 L7.22984515,15.2268099 C4.04770229,15.2268099 1.44413086,12.1333333 1.44413086,8.83333333 C1.44413086,5.53333333 4.04770229,2.41927083 7.22984515,2.41927083 L19.6433287,2.41927083 C22.8254715,2.41927083 25.429043,5.53333333 25.429043,8.83333333 C25.429043,12.1333333 22.8254715,15.2268099 19.6433287,15.2268099 Z" id="形状"></path>
            <path d="M3,8.83333333 C3,11.5947571 5.23857625,13.8333333 8,13.8333333 C10.7614237,13.8333333 13,11.5947571 13,8.83333333 C13,6.07190958 10.7614237,3.83333333 8,3.83333333 C5.23857625,3.83333333 3,6.07190958 3,8.83333333 Z" id="路径"></path>
        </g>
    </g>
</svg>
