<?xml version="1.0" encoding="UTF-8"?>
<svg width="217px" height="48px" viewBox="0 0 217 48" version="1.1" xmlns="http://www.w3.org/2000/svg" xmlns:xlink="http://www.w3.org/1999/xlink">
    <!-- Generator: Sketch 57.1 (83088) - https://sketch.com -->
    <title>编组备份</title>
    <desc>Created with Sketch.</desc>
    <g id="app" stroke="none" stroke-width="1" fill="none" fill-rule="evenodd">
        <g id="登录" transform="translate(-97.000000, -158.000000)">
            <g id="编组备份" transform="translate(98.000000, 159.000000)">
                <path
                        d="M49,7.22708912 L45.2707242,44.5603383 L41.6640067,44.7557435 L45.3932825,7.42249432 L49,7.22708912 Z M34.4855884,3.90520071 L34.0449619,32.7356097 L30.3973916,33.1752714 L30.8380181,4.34486241 L34.4855884,3.90520071 Z M37.631253,45 L18.6638876,45 C15.0367437,45 12.5155431,42.2154759 13.0874821,38.8447362 L19.3642211,2 L22.9359219,2 L16.662101,38.8447362 C16.3965579,40.4079778 17.546272,41.6781116 19.2270724,41.6781116 L38.1944378,41.6781116 L37.631253,45 Z M14.4035255,7.37364302 C10.9689733,23.8419591 7.12881134,35.2758773 3.34117437,44.5603383 L0,43.8275688 C3.7526203,34.738513 7.4381253,23.5977026 10.846415,7.27594042 L14.4035255,7.37364302 Z" id="Fill-1" fill="#fff"></path>
                <path
                        d="M49,7.22708912 L45.2707242,44.5603383 L41.6640067,44.7557435 L45.3932825,7.42249432 L49,7.22708912 Z M34.4855884,3.90520071 L34.0449619,32.7356097 L30.3973916,33.1752714 L30.8380181,4.34486241 L34.4855884,3.90520071 Z M37.631253,45 L18.6638876,45 C15.0367437,45 12.5155431,42.2154759 13.0874821,38.8447362 L19.3642211,2 L22.9359219,2 L16.662101,38.8447362 C16.3965579,40.4079778 17.546272,41.6781116 19.2270724,41.6781116 L38.1944378,41.6781116 L37.631253,45 Z M14.4035255,7.37364302 C10.9689733,23.8419591 7.12881134,35.2758773 3.34117437,44.5603383 L0,43.8275688 C3.7526203,34.738513 7.4381253,23.5977026 10.846415,7.27594042 L14.4035255,7.37364302 Z" id="Stroke-3" stroke="#fff" stroke-width="1.4"></path>
                <path
                        d="M95.5544251,0.0494898271 L94.5548543,5.14694202 L101.434084,5.14694202 C105.00439,5.14694202 107.483211,7.9706116 106.920234,11.3881591 L102.396315,38.714792 C101.833338,42.12959 98.418138,44.9505102 94.847832,44.9505102 L89.0055131,44.9505102 L89.5627451,41.5824525 L95.405064,41.5824525 C97.1112279,41.5824525 98.6163288,40.2984664 98.8805831,38.714792 L103.40163,11.3881591 C103.663012,9.8017352 102.574399,8.56448952 100.868235,8.56448952 L93.8338996,8.56448952 C90.5278479,23.862345 86.7593511,34.7528564 80.4632041,45 L77.4242791,43.6637747 C83.4504271,33.8125496 87.0494565,23.3152074 90.2664659,8.56448952 L83.5940436,8.56448952 L84.1598926,5.14694202 L91.0391226,5.14694202 L92.0444381,0 L95.5544251,0.0494898271 Z M81.5891574,5.0507118 L61.4713591,5.0507118 L62.0314635,1.68265412 L82.1492617,1.68265412 L81.5891574,5.0507118 Z M77.6885335,32.0776563 L76.6142821,38.563573 C76.0484331,41.9783711 72.6361053,44.8020407 69.0657993,44.8020407 L55,44.8020407 L63.6801808,17.9703061 L58.7656244,17.9703061 L59.3228564,14.6022484 L80.5263954,14.6022484 L79.9691634,17.9703061 L67.2476145,17.9703061 L59.693387,41.4367324 L69.6230313,41.4367324 C71.2774933,41.4367324 72.834296,40.1472475 73.095678,38.563573 L74.1699294,32.0776563 L77.6885335,32.0776563 Z" id="Fill-5" fill="#fff"></path>
                <path
                        d="M95.5544251,0.0494898271 L94.5548543,5.14694202 L101.434084,5.14694202 C105.00439,5.14694202 107.483211,7.9706116 106.920234,11.3881591 L102.396315,38.714792 C101.833338,42.12959 98.418138,44.9505102 94.847832,44.9505102 L89.0055131,44.9505102 L89.5627451,41.5824525 L95.405064,41.5824525 C97.1112279,41.5824525 98.6163288,40.2984664 98.8805831,38.714792 L103.40163,11.3881591 C103.663012,9.8017352 102.574399,8.56448952 100.868235,8.56448952 L93.8338996,8.56448952 C90.5278479,23.862345 86.7593511,34.7528564 80.4632041,45 L77.4242791,43.6637747 C83.4504271,33.8125496 87.0494565,23.3152074 90.2664659,8.56448952 L83.5940436,8.56448952 L84.1598926,5.14694202 L91.0391226,5.14694202 L92.0444381,0 L95.5544251,0.0494898271 Z M81.5891574,5.0507118 L61.4713591,5.0507118 L62.0314635,1.68265412 L82.1492617,1.68265412 L81.5891574,5.0507118 Z M77.6885335,32.0776563 L76.6142821,38.563573 C76.0484331,41.9783711 72.6361053,44.8020407 69.0657993,44.8020407 L55,44.8020407 L63.6801808,17.9703061 L58.7656244,17.9703061 L59.3228564,14.6022484 L80.5263954,14.6022484 L79.9691634,17.9703061 L67.2476145,17.9703061 L59.693387,41.4367324 L69.6230313,41.4367324 C71.2774933,41.4367324 72.834296,40.1472475 73.095678,38.563573 L74.1699294,32.0776563 L77.6885335,32.0776563 Z" id="Stroke-7" stroke="#fff" stroke-width="1.4"></path>
                <path
                        d="M123.297534,17.7423696 L139.226459,17.7423696 L140.641531,9.21799498 L125.853886,9.21799498 L131.689976,0 L134.684395,1.34044896 L131.860016,5.84898159 L141.200643,5.84898159 L142.1373,0.198177259 L145.667775,0.198177259 L144.731118,5.84898159 L159,5.84898159 L158.440888,9.21799498 L144.172006,9.21799498 L142.756934,17.7423696 L158.270849,17.7423696 L157.711737,21.1141354 L149.619024,21.1141354 L147.541088,33.6515995 C147.284588,35.1874732 148.420104,36.4756254 150.080147,36.4756254 L154.855655,36.4756254 L154.296543,39.8473913 L149.523918,39.8473913 C145.941566,39.8473913 143.434209,37.122454 144.010613,33.6515995 L146.088549,21.1141354 L134.102227,21.1141354 C132.064639,28.3999021 128.508226,34.1965869 121.553911,39.8473913 L119.455801,37.4692642 C125.519571,32.5120802 128.735906,27.505352 130.522758,21.1141354 L122.738422,21.1141354 L123.297534,17.7423696 Z M153.959347,45 L117.58537,45 C114.003018,45 111.512953,42.1759741 112.080711,38.7574164 L116.461382,12.3420393 L119.991856,12.3420393 L115.611186,38.7574164 C115.337394,40.3923787 116.481556,41.6309866 118.141599,41.6309866 L154.518459,41.6309866 L153.959347,45 Z M121.93722,0.597284238 L120.516384,9.16845067 L116.988791,9.16845067 L118.409627,0.597284238 L121.93722,0.597284238 Z" id="Fill-9" fill="#fff"></path>
                <path
                        d="M123.297534,17.7423696 L139.226459,17.7423696 L140.641531,9.21799498 L125.853886,9.21799498 L131.689976,0 L134.684395,1.34044896 L131.860016,5.84898159 L141.200643,5.84898159 L142.1373,0.198177259 L145.667775,0.198177259 L144.731118,5.84898159 L159,5.84898159 L158.440888,9.21799498 L144.172006,9.21799498 L142.756934,17.7423696 L158.270849,17.7423696 L157.711737,21.1141354 L149.619024,21.1141354 L147.541088,33.6515995 C147.284588,35.1874732 148.420104,36.4756254 150.080147,36.4756254 L154.855655,36.4756254 L154.296543,39.8473913 L149.523918,39.8473913 C145.941566,39.8473913 143.434209,37.122454 144.010613,33.6515995 L146.088549,21.1141354 L134.102227,21.1141354 C132.064639,28.3999021 128.508226,34.1965869 121.553911,39.8473913 L119.455801,37.4692642 C125.519571,32.5120802 128.735906,27.505352 130.522758,21.1141354 L122.738422,21.1141354 L123.297534,17.7423696 Z M153.959347,45 L117.58537,45 C114.003018,45 111.512953,42.1759741 112.080711,38.7574164 L116.461382,12.3420393 L119.991856,12.3420393 L115.611186,38.7574164 C115.337394,40.3923787 116.481556,41.6309866 118.141599,41.6309866 L154.518459,41.6309866 L153.959347,45 Z M121.93722,0.597284238 L120.516384,9.16845067 L116.988791,9.16845067 L118.409627,0.597284238 L121.93722,0.597284238 Z" id="Stroke-11" stroke="#fff" stroke-width="1.4"></path>
                <path
                        d="M190.838244,15.9660509 L199.509059,29.5475287 C202.79917,25.4818938 205.64089,21.0198801 207.805737,15.9660509 L190.838244,15.9660509 Z M205.578058,45.8018106 L198.777923,35.2454735 C195.090827,39.2092611 191.092428,42.5812332 186.962653,45.8018106 L185.006293,43.3244434 C189.184621,40.1038659 193.328676,36.4841571 197.030051,32.4212748 L188.439205,18.988439 L183.02423,46 L179.534198,45.9504527 L187.242541,7.49070223 C188.010805,4.0719354 191.192388,1.29453144 194.73954,1.29453144 L215,1.29453144 L214.448792,4.66650355 L194.185476,4.66650355 C192.643236,4.66650355 191.138124,6.00428187 190.721148,7.58979692 L189.695844,12.5968314 L212.578112,12.5968314 C209.724969,20.573954 205.846522,26.9683142 201.308338,32.3717274 L208.636833,43.7703695 L205.578058,45.8018106 Z M176.189823,45.6531686 L170.532088,45.6531686 C166.984936,45.6531686 164.517353,42.8289699 165.079985,39.4102031 L169.483936,12.5968314 L172.982535,12.5968314 L168.575728,39.4102031 C168.315832,40.9957181 169.441096,42.2839491 171.086152,42.2839491 L176.741031,42.2839491 L176.189823,45.6531686 Z M174.330567,1.88909958 L172.285672,6.20247125 L185.397565,6.20247125 L180.845102,16.0651456 L177.597831,15.1732934 L180.216782,9.57169073 L167.102032,9.57169073 L171.083296,1 L174.330567,1.88909958 Z" id="Fill-13" fill="#fff"></path>
                <path
                        d="M190.838244,15.9660509 L199.509059,29.5475287 C202.79917,25.4818938 205.64089,21.0198801 207.805737,15.9660509 L190.838244,15.9660509 Z M205.578058,45.8018106 L198.777923,35.2454735 C195.090827,39.2092611 191.092428,42.5812332 186.962653,45.8018106 L185.006293,43.3244434 C189.184621,40.1038659 193.328676,36.4841571 197.030051,32.4212748 L188.439205,18.988439 L183.02423,46 L179.534198,45.9504527 L187.242541,7.49070223 C188.010805,4.0719354 191.192388,1.29453144 194.73954,1.29453144 L215,1.29453144 L214.448792,4.66650355 L194.185476,4.66650355 C192.643236,4.66650355 191.138124,6.00428187 190.721148,7.58979692 L189.695844,12.5968314 L212.578112,12.5968314 C209.724969,20.573954 205.846522,26.9683142 201.308338,32.3717274 L208.636833,43.7703695 L205.578058,45.8018106 Z M176.189823,45.6531686 L170.532088,45.6531686 C166.984936,45.6531686 164.517353,42.8289699 165.079985,39.4102031 L169.483936,12.5968314 L172.982535,12.5968314 L168.575728,39.4102031 C168.315832,40.9957181 169.441096,42.2839491 171.086152,42.2839491 L176.741031,42.2839491 L176.189823,45.6531686 Z M174.330567,1.88909958 L172.285672,6.20247125 L185.397565,6.20247125 L180.845102,16.0651456 L177.597831,15.1732934 L180.216782,9.57169073 L167.102032,9.57169073 L171.083296,1 L174.330567,1.88909958 Z" id="Stroke-15" stroke="#fff" stroke-width="1.4"></path>
            </g>
        </g>
    </g>
</svg>
