<?xml version="1.0" encoding="UTF-8"?>
<svg width="18px" height="19px" viewBox="0 0 18 19" version="1.1" xmlns="http://www.w3.org/2000/svg" xmlns:xlink="http://www.w3.org/1999/xlink">
    <!-- Generator: Sketch 61.2 (89653) - https://sketch.com -->
    <title>日历</title>
    <desc>Created with Sketch.</desc>
    <defs>
        <linearGradient x1="75.5448191%" y1="13.8055099%" x2="22.4698153%" y2="100%" id="linearGradient-1">
            <stop stop-color="#FF9F00" offset="0%"></stop>
            <stop stop-color="#FF6600" offset="100%"></stop>
        </linearGradient>
    </defs>
    <g id="控件" stroke="none" stroke-width="1" fill="none" fill-rule="evenodd">
        <g id="选餐/模块1" transform="translate(-25.000000, -24.000000)" fill="url(#linearGradient-1)">
            <g id="编组-5" transform="translate(25.000000, 24.000000)">
                <path d="M13.7368421,1.43743105 L15.3956842,1.43743105 C16.8347368,1.43743105 18,2.60364156 18,4.04482578 L18,15.4087468 C18,16.8489837 16.8342632,18.0163784 15.3956842,18.0163784 L2.60431578,18.0163784 C1.16526316,18.0163784 0,16.8501679 0,15.4089837 L0,4.04506263 C0,2.60482579 1.16573684,1.43743105 2.60431578,1.43743105 L4.2631579,1.43743105 L4.2631579,0.726904731 C4.2631579,0.334491882 4.58127137,0.0163784149 4.97368421,0.0163784149 C5.36609706,0.0163784149 5.68421053,0.334491882 5.68421053,0.726904731 L5.68421053,1.43743105 L12.3157895,1.43743105 L12.3157895,0.726904731 C12.3157895,0.334491882 12.6339029,0.0163784149 13.0263158,0.0163784149 C13.4187286,0.0163784149 13.7368421,0.334491882 13.7368421,0.726904731 L13.7368421,1.43743105 Z M13.5,6.7071679 C13.8924129,6.7071679 14.2105263,7.02528136 14.2105263,7.41769421 C14.2105263,7.81010706 13.8924129,8.12822053 13.5,8.12822053 L4.49999999,8.12822053 C4.10758714,8.12822053 3.78947367,7.81010706 3.78947367,7.41769421 C3.78947367,7.02528136 4.10758714,6.7071679 4.49999999,6.7071679 L13.5,6.7071679 L13.5,6.7071679 Z M10.6578947,11.3847995 C11.0503076,11.3847995 11.3684211,11.7029129 11.3684211,12.0953258 C11.3684211,12.4877386 11.0503076,12.8058521 10.6578947,12.8058521 L4.49999999,12.8058521 C4.10758714,12.8058521 3.78947367,12.4877386 3.78947367,12.0953258 C3.78947367,11.7029129 4.10758714,11.3847995 4.49999999,11.3847995 L10.6578947,11.3847995 Z" id="日历"></path>
            </g>
        </g>
    </g>
</svg>