<?xml version="1.0" encoding="UTF-8"?>
<svg width="32px" height="32px" viewBox="0 0 32 32" version="1.1" xmlns="http://www.w3.org/2000/svg" xmlns:xlink="http://www.w3.org/1999/xlink">
    <!-- Generator: Sketch 61.2 (89653) - https://sketch.com -->
    <title>选饭a备份</title>
    <desc>Created with Sketch.</desc>
    <defs>
        <linearGradient x1="-17.6050647%" y1="121.333093%" x2="76.4278017%" y2="25.342137%" id="linearGradient-1">
            <stop stop-color="#EA5C03" offset="0%"></stop>
            <stop stop-color="#EDB100" offset="100%"></stop>
        </linearGradient>
    </defs>
    <g id="选饭a备份" stroke="none" stroke-width="1" fill="none" fill-rule="evenodd">
        <g id="编组备份-3" transform="translate(2.000000, 2.000000)" fill="url(#linearGradient-1)" fill-rule="nonzero">
            <path d="M20.3682025,0.542058586 C20.9058511,0.991957808 20.9769861,1.79252351 20.5270869,2.33017213 C20.5263495,2.33105328 20.525611,2.33193342 20.5248713,2.33281256 L15.756,7.99954805 L18.016,7.99954805 L25.5683749,2.71152499 C26.1239885,2.32248012 26.8897856,2.4575108 27.2788304,3.01312446 C27.6678753,3.56873812 27.5328446,4.33453516 26.977231,4.72358003 L22.298,7.99954805 L25.9873641,8 C27.0475966,8 27.9175762,8.8471445 27.9944747,9.92000435 L28,10.0747384 L28,15.6487294 C28,20.0134529 25.143449,23.7025411 21.2544795,24.8325859 L21.2544795,24.8325859 L21.2544795,25.9252616 C21.2544795,27.0672646 20.3525634,28 19.2418436,28 L19.2418436,28 L8.7581564,28 C7.65033661,28 6.74552046,27.0702541 6.74552046,25.9252616 L6.74552046,25.9252616 L6.74552046,24.8325859 C2.85655101,23.6995516 0,20.0104634 0,15.6457399 L0,15.6457399 L0,10.0747384 C0,8.93273543 0.901916106,8 2.01263594,8 L2.01263594,8 L12.43,7.99954805 L18.5725793,0.699153334 C19.0255236,0.160842503 19.8286637,0.0905777061 20.3682025,0.542058586 Z" id="路径-2"></path>
        </g>
    </g>
</svg>