<?xml version="1.0" encoding="UTF-8"?>
<svg width="29px" height="29px" viewBox="0 0 29 29" version="1.1" xmlns="http://www.w3.org/2000/svg" xmlns:xlink="http://www.w3.org/1999/xlink">
    <!-- Generator: Sketch 61.2 (89653) - https://sketch.com -->
    <title>选饭</title>
    <desc>Created with Sketch.</desc>
    <g id="app" stroke="none" stroke-width="1" fill="none" fill-rule="evenodd">
        <g id="菜单备份-6" transform="translate(-58.000000, -686.000000)" fill="#E9E9E9" fill-rule="nonzero">
            <g id="编组备份" transform="translate(58.000000, 686.000000)">
                <path d="M28.6707543,4.02815352 C29.0224812,3.71753183 29.1104129,3.14422589 28.8466178,2.74582684 C28.5390178,2.30402496 28.0117496,2.21559984 27.6158958,2.52492592 L20.9343737,7.36628406 C20.5852328,7.11190361 20.2227866,6.87652146 19.8485941,6.66115015 L26.7369008,1.6856967 C27.1765594,1.37637062 27.2644911,0.802416869 26.9556027,0.404017827 C26.6476807,-0.0377840536 26.1204124,-0.126209182 25.7248808,0.183116901 L17.9475941,5.78823518 C16.6637925,5.3264566 15.3106399,5.08991469 13.9471841,5.08893147 C8.35756122,5.08893147 3.56608785,8.92619447 2.2851192,14.326283 L1.68505768,14.326283 C0.674003988,14.326283 -0.118669874,15.2102106 0.0146771455,16.2269379 C0.893672228,23.4311587 6.69587723,29 13.7275158,29 C20.7591544,29 26.5613594,23.4311587 27.4403545,16.2269379 C27.572091,15.2102106 26.7810277,14.326283 25.769974,14.326283 L25.6089269,14.326283 C25.0851389,12.1363096 23.9588713,10.1388468 22.3589963,8.56245289 L28.6707543,4.02815352 Z M22.6495253,14.0603597 L5.20103804,14.0603597 C4.71789673,14.0603597 4.36584776,13.5301327 4.58583809,13.0886547 C6.16796484,9.37609387 9.81600381,6.85678674 13.9471841,6.85678674 C18.0783643,6.85678674 21.7267254,9.37609387 23.3088521,13.0886547 C23.4847156,13.5317522 23.1329887,14.0610075 22.6495253,14.0610075 L22.6495253,14.0603597 Z" id="选饭"></path>
            </g>
        </g>
    </g>
</svg>