<?xml version="1.0" encoding="UTF-8"?>
<svg width="32px" height="32px" viewBox="0 0 32 32" version="1.1" xmlns="http://www.w3.org/2000/svg" xmlns:xlink="http://www.w3.org/1999/xlink">
    <!-- Generator: Sketch 61.2 (89653) - https://sketch.com -->
    <title>选饭a</title>
    <desc>Created with Sketch.</desc>
    <defs>
        <linearGradient x1="-14.8431306%" y1="122.595636%" x2="75.3481216%" y2="24.9057112%" id="linearGradient-1">
            <stop stop-color="#EA5C03" offset="0%"></stop>
            <stop stop-color="#EDB100" offset="100%"></stop>
        </linearGradient>
    </defs>
    <g id="选饭a" stroke="none" stroke-width="1" fill="none" fill-rule="evenodd">
        <g id="编组备份-20" transform="translate(2.000000, 1.000000)" fill="url(#linearGradient-1)" fill-rule="nonzero">
            <path d="M27.659401,4.16705537 C28.0232564,3.84572258 28.1142203,3.25264747 27.8413287,2.84051053 C27.5231219,2.3834741 26.977672,2.29199983 26.5681681,2.61199233 L21.6562486,6.62029386 C21.2950684,6.35714166 20.920124,6.11364289 20.5330284,5.89084498 L25.6588629,1.74382417 C26.1136821,1.42383167 26.2046459,0.830086417 25.8851063,0.417949476 C25.5665662,-0.039086952 25.0211163,-0.130561222 24.6119456,0.189431277 L18.5664767,4.98782949 C17.238406,4.51012752 15.838593,4.26542899 14.4281214,4.26441186 C8.64575299,4.26441186 3.6890564,8.23399428 2.36391641,13.8202927 L1.74316312,13.8202927 C0.697245505,13.8202927 -0.122761938,14.7347006 0.0151832539,15.7864875 C0.924488511,23.2391297 6.92676955,29 14.2008784,29 C21.4749873,29 27.4772684,23.2391297 28.3865736,15.7864875 C28.5228528,14.7347007 27.7045114,13.8202927 26.6585938,13.8202927 L26.4919933,13.8202927 C25.9501437,11.554803 24.7850393,9.48846225 23.1299962,7.85770989 L27.659401,4.16705537 Z M23.4305434,13.5451997 L5.38038418,13.5451997 C4.88058283,13.5451997 4.51639423,12.996689 4.74397044,12.5399876 C6.38065329,8.69940745 10.1544867,6.09322766 14.4281214,6.09322766 C18.7017562,6.09322766 22.4759228,8.69940745 24.1126057,12.5399876 C24.2945333,12.9983644 23.930678,13.5458698 23.4305434,13.5458698 L23.4305434,13.5451997 Z" id="形状"></path>
        </g>
    </g>
</svg>