<?xml version="1.0" encoding="UTF-8"?>
<svg width="24px" height="24px" viewBox="0 0 24 24" version="1.1" xmlns="http://www.w3.org/2000/svg" xmlns:xlink="http://www.w3.org/1999/xlink">
    <!-- Generator: Sketch 61.2 (89653) - https://sketch.com -->
    <title>限量餐</title>
    <desc>Created with Sketch.</desc>
    <defs>
        <linearGradient x1="76.3509115%" y1="27.8900146%" x2="22.4698153%" y2="88.28125%" id="linearGradient-1">
            <stop stop-color="#FF9F00" offset="0%"></stop>
            <stop stop-color="#FF6600" offset="100%"></stop>
        </linearGradient>
    </defs>
    <g id="限量餐" stroke="none" stroke-width="1" fill="none" fill-rule="evenodd">
        <g id="编组备份-20" transform="translate(0.000000, 1.000000)" fill="url(#linearGradient-1)">
            <path d="M13,-2.3141501e-12 C13.5522847,-2.31411628e-12 14,0.44771525 14,1 L14,1.154 L22.5859567,1.1541254 C23.1346664,1.1541254 23.5808868,1.5962757 23.5859147,2.14496236 L23.5859986,2.1541254 C23.5910133,2.70137252 23.1514471,3.14906914 22.6041999,3.1540838 L14,3.154 L14,4 L22.6131902,4 C23.1618872,4 23.6081024,4.44213063 23.6131479,4.99080446 L23.6132325,5 C23.6182648,5.54722933 23.1787272,5.99492582 22.6314979,5.99995811 C22.6284607,5.99998603 22.6254235,6 22.6223862,6 L14,6 L14,8.724 L22.5272464,8.72458947 C23.3645583,8.72458947 24.0292723,9.38825677 23.999006,10.1813143 L23.987437,10.314597 C23.219049,16.3413431 18.1469561,21 12.0001336,21 C5.85331116,21 0.78121827,16.3413431 0.012830268,10.314597 C-0.103737221,9.46404591 0.589191667,8.72458947 1.47302088,8.72458947 L1.47302088,8.72458947 L5.999,8.724 L5.999,6 L4.63166664,6 C4.08296962,6 3.63675449,5.55786937 3.63170892,5.00919554 L3.63162436,5 C3.62659208,4.45277067 4.06612963,4.00507418 4.61335896,4.00004189 L6,4 L6,3.154 L4.60436749,3.1541254 C4.05565779,3.1541254 3.60943732,2.71197511 3.60440947,2.16328845 L3.6043255,2.1541254 C3.59931084,1.60687829 4.0388771,1.15918166 4.58612422,1.154167 L6,1.154 L6,1 C6,0.44771525 6.44771525,-3.67842597e-12 7,-3.67839215e-12 C7.55228475,-3.67835833e-12 8,0.44771525 8,1 L8,1.154 L9,1.154 L9,1 C9,0.44771525 9.44771525,-3.90579964e-12 10,-3.90576583e-12 C10.5522847,-3.90573201e-12 11,0.44771525 11,1 L11,1.154 L12,1.154 L12,1 C12,0.44771525 12.4477153,-2.31418392e-12 13,-2.3141501e-12 Z M12,8.724 L12,6 L11,6 L11,8.724 L12,8.724 Z M9,6 L7.999,6 L7.999,8.724 L9,8.724 L9,6 Z M12,4 L12,3.154 L11,3.154 L11,4 L12,4 Z M9,3.154 L8,3.154 L8,4 L9,4 L9,3.154 Z" id="形状"></path>
        </g>
    </g>
</svg>