<?xml version="1.0" encoding="UTF-8"?>
<svg width="24px" height="24px" viewBox="0 0 24 24" version="1.1" xmlns="http://www.w3.org/2000/svg" xmlns:xlink="http://www.w3.org/1999/xlink">
    <!-- Generator: Sketch 61.2 (89653) - https://sketch.com -->
    <title>限量餐</title>
    <desc>Created with Sketch.</desc>
    <defs>
        <linearGradient x1="76.3509115%" y1="22.6667816%" x2="22.4698153%" y2="97.3247607%" id="linearGradient-1">
            <stop stop-color="#FF9F00" offset="0%"></stop>
            <stop stop-color="#FF6600" offset="100%"></stop>
        </linearGradient>
    </defs>
    <g id="限量餐" stroke="none" stroke-width="1" fill="none" fill-rule="evenodd">
        <g id="编组备份-20" transform="translate(1.000000, 1.000000)" fill="url(#linearGradient-1)">
            <path d="M12,-2.27373675e-12 C12.5522847,-2.27370294e-12 13,0.44771525 13,1 L13,1.154 L21.5859567,1.1541254 C22.1346664,1.1541254 22.5808868,1.5962757 22.5859147,2.14496236 L22.5859986,2.1541254 C22.5910133,2.70137252 22.1514471,3.14906914 21.6041999,3.1540838 L13,3.154 L13,4 L21.6131902,4 C22.1618872,4 22.6081024,4.44213063 22.6131479,4.99080446 L22.6132325,5 C22.6182648,5.54722933 22.1787272,5.99492582 21.6314979,5.99995811 C21.6284607,5.99998603 21.6254235,6 21.6223862,6 L13,6 L13,8 L20.4186432,8 C21.2428678,8 21.9207549,8.58051726 21.9935318,9.32021531 L22,9.45231689 L22,13.3541106 C22,16.409417 19.7555671,18.9917788 16.6999482,19.7828102 L16.6999482,19.7828102 L16.6999482,20.5476831 C16.6999482,21.3470852 15.9912998,22 15.1185914,22 L15.1185914,22 L6.8814086,22 C6.01097877,22 5.30005179,21.3491779 5.30005179,20.5476831 L5.30005179,20.5476831 L5.30005179,19.7828102 C2.24443294,18.9896861 0,16.4073244 0,13.3520179 L0,13.3520179 L0,9.45231689 C0,8.6529148 0.708648369,8 1.58135681,8 L1.58135681,8 L4.999,8 L4.999,6 L3.63166664,6 C3.08296962,6 2.63675449,5.55786937 2.63170892,5.00919554 L2.63162436,5 C2.62659208,4.45277067 3.06612963,4.00507418 3.61335896,4.00004189 L5,4 L5,3.154 L3.60436749,3.1541254 C3.05565779,3.1541254 2.60943732,2.71197511 2.60440947,2.16328845 L2.6043255,2.1541254 C2.59931084,1.60687829 3.0388771,1.15918166 3.58612422,1.154167 L5,1.154 L5,1 C5,0.44771525 5.44771525,-3.63801262e-12 6,-3.63797881e-12 C6.55228475,-3.63794499e-12 7,0.44771525 7,1 L7,1.154 L8,1.154 L8,1 C8,0.44771525 8.44771525,-3.8653863e-12 9,-3.86535248e-12 C9.55228475,-3.86531866e-12 10,0.44771525 10,1 L10,1.154 L11,1.154 L11,1 C11,0.44771525 11.4477153,-2.27377057e-12 12,-2.27373675e-12 Z M8,6 L6.999,6 L6.999,8 L8,8 L8,6 Z M11,6 L10,6 L10,8 L11,8 L11,6 Z M11,3.154 L10,3.154 L10,4 L11,4 L11,3.154 Z M8,3.154 L7,3.154 L7,4 L8,4 L8,3.154 Z" id="形状"></path>
        </g>
    </g>
</svg>