<?xml version="1.0" encoding="UTF-8"?>
<svg width="24px" height="21px" viewBox="0 0 24 21" version="1.1" xmlns="http://www.w3.org/2000/svg" xmlns:xlink="http://www.w3.org/1999/xlink">
    <!-- Generator: Sketch 61.2 (89653) - https://sketch.com -->
    <title>路径</title>
    <desc>Created with Sketch.</desc>
    <g id="app" stroke="none" stroke-width="1" fill="none" fill-rule="evenodd">
        <g id="登录" transform="translate(-300.000000, -401.000000)" fill="#FFFFFF" fill-rule="nonzero">
            <path d="M321.511742,408.573574 L313.17829,400.002073 C312.527451,399.332642 311.472419,399.332642 310.821581,400.002073 L302.488129,408.573574 C301.83729,409.243004 301.83729,410.328173 302.488129,410.997603 C303.138967,411.667033 304.193999,411.667033 304.844838,410.997603 L310.333274,405.352387 L310.333274,421.78568 C310.333274,422.732835 311.079133,423.5 311.999984,423.5 C312.920835,423.5 313.666694,422.732835 313.666694,421.78568 L313.666694,405.352387 L319.15513,410.997603 C319.480129,411.331918 319.906815,411.499892 320.333501,411.499892 C320.760187,411.499892 321.18684,411.332751 321.511871,410.997603 C322.16271,410.328173 322.16271,409.243004 321.511871,408.573574 L321.511742,408.573574 Z" id="路径" transform="translate(312.000000, 411.500000) rotate(-270.000000) translate(-312.000000, -411.500000) "></path>
        </g>
    </g>
</svg>