<?xml version="1.0" encoding="UTF-8"?>
<svg width="24px" height="24px" viewBox="0 0 24 24" version="1.1" xmlns="http://www.w3.org/2000/svg" xmlns:xlink="http://www.w3.org/1999/xlink">
    <!-- Generator: Sketch 61.2 (89653) - https://sketch.com -->
    <title>退出</title>
    <desc>Created with Sketch.</desc>
    <defs>
        <linearGradient x1="75.5448191%" y1="13.8055099%" x2="22.4698153%" y2="100%" id="linearGradient-1">
            <stop stop-color="#FF9F00" offset="0%"></stop>
            <stop stop-color="#FF6600" offset="100%"></stop>
        </linearGradient>
    </defs>
    <g id="退出" stroke="none" stroke-width="1" fill="none" fill-rule="evenodd">
        <g id="编组备份-2" transform="translate(12.000000, 12.000000) scale(-1, 1) translate(-12.000000, -12.000000) translate(1.000000, 1.000000)" fill="url(#linearGradient-1)">
            <path d="M11,0 C17.05,0 22,4.95 22,11 C22,17.05 17.05,22 11,22 C4.95,22 0,17.05 0,11 C0,4.95 4.95,0 11,0 Z M13.9098236,6.00108987 L13.7949034,6.01396219 C13.5627358,6.05383507 13.3796519,6.16688337 13.2456514,6.35346223 C13.111651,6.54896092 13.0641344,6.76227196 13.104641,6.99338169 C13.1451614,7.22409529 13.263575,7.40642597 13.4598954,7.53959511 C14.0410771,7.93910255 14.4921757,8.44776525 14.8139196,9.06522805 C15.1356911,9.68267718 15.2969479,10.337677 15.2969479,11.0306238 C15.2969479,11.6167374 15.1832077,12.1699173 14.9549438,12.6894258 C14.7266798,13.2093305 14.4189421,13.6622613 14.030191,14.0486008 C13.6406565,14.4349538 13.1848983,14.7415475 12.6621469,14.9680129 C12.1393954,15.1944783 11.5831335,15.3075129 10.9926052,15.3075129 C10.4028466,15.3075129 9.84658471,15.1944783 9.32383324,14.9680129 C8.80029828,14.7415475 8.34532361,14.4349402 7.95578908,14.0486008 C7.56703802,13.6622613 7.26085343,13.2093305 7.03804629,12.6894258 C6.81367221,12.1699036 6.70226863,11.6167237 6.70226863,11.0306238 C6.70226863,10.3465832 6.85262566,9.70707354 7.15178652,9.11168494 C7.4509474,8.5166788 7.88255549,8.01458645 8.4450439,7.60617285 C8.63358465,7.46411118 8.74498823,7.27751867 8.78082155,7.04640893 C8.81588516,6.81529921 8.76289801,6.60663248 8.61955096,6.42005362 C8.47620389,6.23346109 8.29078327,6.12273496 8.0633028,6.08712393 C7.83580859,6.0515129 7.62313153,6.10493627 7.42602761,6.24701159 C7.05051303,6.53116222 6.71083178,6.85091024 6.40699759,7.20629659 C6.10316342,7.5616693 5.84918251,7.94376052 5.64351542,8.35216047 C5.43784835,8.76097021 5.27891441,9.19182683 5.16672737,9.64475764 C5.05531005,10.0976748 5,10.5598943 5,11.0306374 C5,11.8567533 5.15581381,12.6317543 5.46900836,13.3556677 C5.78218918,14.0795811 6.21067715,14.7101983 6.75602549,15.2479017 C7.30137382,15.7852226 7.938649,16.2114349 8.66629784,16.5269483 C9.39551362,16.8424482 10.1706791,17 10.9926052,17 C11.8238779,17 12.6045001,16.8424482 13.332149,16.5269483 C14.0613373,16.2114349 14.6955061,15.7852226 15.2361811,15.2479017 C15.7776258,14.7105808 16.2061275,14.0795811 16.5239817,13.3556677 C16.8410661,12.6317543 17,11.8567533 17,11.0306374 C17,10.5506056 16.9415698,10.0779228 16.8254929,9.61145512 C16.7094161,9.14498746 16.5395823,8.70328498 16.3159779,8.28558273 C16.0923873,7.86827662 15.8243865,7.47960138 15.5112057,7.11958435 C15.1987808,6.7599498 14.8412035,6.43787963 14.4384188,6.15372899 C14.2420983,6.02055985 14.0278543,5.97370682 13.7949034,6.01396219 Z M10.9917677,5 C10.7191167,5 10.4858033,5.08745736 10.2909396,5.26232962 C10.0969799,5.43721603 10,5.64418948 10,5.88366045 L10,5.88366045 L10,10.1299557 C10,10.3694266 10.0969637,10.5744044 10.2909396,10.7444784 C10.4858033,10.914963 10.7191167,11 10.9917677,11 C11.2753789,11 11.5141806,10.9149771 11.7081403,10.7444784 C11.9030201,10.5744044 12,10.3694266 12,10.1299557 L12,10.1299557 L12,5.88366045 C12,5.64418949 11.9030201,5.43721603 11.7081403,5.26232962 C11.5141806,5.08745736 11.2753789,5 10.9917677,5 Z" id="形状"></path>
        </g>
    </g>
</svg>