<?xml version="1.0" encoding="UTF-8"?>
<svg width="24px" height="24px" viewBox="0 0 24 24" version="1.1" xmlns="http://www.w3.org/2000/svg" xmlns:xlink="http://www.w3.org/1999/xlink">
    <!-- Generator: Sketch 61.2 (89653) - https://sketch.com -->
    <title>密码</title>
    <desc>Created with Sketch.</desc>
    <defs>
        <linearGradient x1="71.820669%" y1="13.8055099%" x2="26.4834096%" y2="100%" id="linearGradient-1">
            <stop stop-color="#FF6600" offset="0%"></stop>
            <stop stop-color="#FF9F00" offset="100%"></stop>
        </linearGradient>
    </defs>
    <g id="密码" stroke="none" stroke-width="1" fill="none" fill-rule="evenodd">
        <path d="M1.58803695,18.4106458 C0.803987672,19.2149233 0.803987686,20.5189146 1.58803698,21.3231921 C2.37208627,22.1274695 3.64328134,22.1274695 4.42733064,21.3231921 L4.99357155,20.7506403 L7.35560506,23.1736132 C7.54839382,23.3722483 7.81038251,23.483914 8.08362908,23.483914 C8.35687565,23.483914 8.61886434,23.3722483 8.8116531,23.1736132 L12.3304359,19.5640474 C12.5240752,19.3662847 12.6329324,19.0975368 12.6329324,18.8172406 C12.6329324,18.5369444 12.5240752,18.2681965 12.3304359,18.0704339 L9.95222408,15.6474609 L13.1335649,12.7305772 C16.0110676,14.2477113 19.5370141,13.3894872 21.4433129,10.7079638 C23.3496116,8.02644039 23.0684758,4.32030358 20.7807482,1.97355353 C18.4930205,-0.373196516 14.8800956,-0.661585485 12.2660144,1.29389498 C9.65193319,3.24937545 8.81529396,6.86628982 10.2942712,9.81803091 L1.58803695,18.4106458 Z M13.6270034,6.73122976 C13.6270034,5.3014032 14.7569545,4.14229975 16.15082,4.14229975 C17.5446854,4.14229975 18.6746366,5.3014032 18.6746366,6.73122976 C18.6746366,8.16105631 17.5446854,9.32015976 16.15082,9.32015976 C14.7587979,9.3156049 13.6314437,8.15916538 13.6270034,6.73122976 Z" id="形状" fill="url(#linearGradient-1)" transform="translate(11.852333, 11.741957) rotate(-180.000000) translate(-11.852333, -11.741957) "></path>
    </g>
</svg>