<?xml version="1.0" encoding="UTF-8"?>
<svg width="32px" height="32px" viewBox="0 0 32 32" version="1.1" xmlns="http://www.w3.org/2000/svg" xmlns:xlink="http://www.w3.org/1999/xlink">
    <!-- Generator: Sketch 61.2 (89653) - https://sketch.com -->
    <title>扫码a</title>
    <desc>Created with Sketch.</desc>
    <defs>
        <linearGradient x1="-23.6472801%" y1="104.701451%" x2="100%" y2="24.5535714%" id="linearGradient-1">
            <stop stop-color="#EA5C03" offset="0%"></stop>
            <stop stop-color="#EDB100" offset="100%"></stop>
        </linearGradient>
    </defs>
    <g id="扫码a" stroke="none" stroke-width="1" fill="none" fill-rule="evenodd">
        <g id="编组备份-2" transform="translate(2.000000, 4.000000)" fill="url(#linearGradient-1)" fill-rule="nonzero">
            <path d="M24.15,0 C26.27625,0 28,1.68857142 28,3.77142856 L28,20.2285714 C28,22.3114286 26.27625,24 24.15,24 L3.85000002,24 C1.72375002,24 0,22.3114286 0,20.2285714 L0,3.77142856 C0,1.68857142 1.72374999,0 3.85000002,0 L24.15,0 Z M14,8.22857144 C13.420101,8.22857144 12.95,8.68907855 12.95,9.25714287 L12.95,9.25714287 L12.95,14.7428571 C12.95,15.3109214 13.420101,15.7714286 14,15.7714286 C14.579899,15.7714286 15.05,15.3109214 15.05,14.7428571 L15.05,14.7428571 L15.05,9.25714287 C15.05,8.68907855 14.579899,8.22857144 14,8.22857144 Z M19.25,8.22857144 L17.15,8.22857144 C16.570101,8.22857144 16.1,8.68907855 16.1,9.25714287 L16.1,9.25714287 L16.1,14.7428571 C16.1,15.3109214 16.570101,15.7714286 17.15,15.7714286 C17.729899,15.7714286 18.2,15.3109214 18.2,14.7428571 L18.2,14.7428571 L18.2,13.0285714 L19.25,13.0285714 C20.6029869,13.028418 21.6997165,11.9539464 21.6997165,10.6285714 C21.6997165,9.30319649 20.6029869,8.22872482 19.25,8.22857144 L19.25,8.22857144 Z M11.6310081,8.54898432 C11.3757029,8.27453097 10.9892125,8.15617625 10.6197903,8.23931972 C10.2503681,8.32246319 9.95536848,8.59419647 9.84794999,8.95028571 L9.84794999,8.95028571 L9.10000001,11.2944 L8.35205,8.95028571 C8.2446318,8.59419615 7.94963214,8.32246249 7.58020974,8.23931886 C7.21078735,8.15617522 6.82429665,8.27453003 6.56899134,8.54898363 C6.31368604,8.82343723 6.22920338,9.21137952 6.34795002,9.56399999 L6.34795002,9.56399999 L8.09795,15.0497143 C8.40455,16.0121143 9.79509998,16.0121143 10.10205,15.0497143 L10.10205,15.0497143 L11.85205,9.56399999 C11.9707962,9.21137963 11.8863134,8.82343767 11.6310081,8.54898432 Z M18.2,10.9714286 L19.25,10.9714286 C19.4432578,10.9713706 19.5998928,10.8178852 19.5998928,10.6285714 C19.5998928,10.4392577 19.4432578,10.2857723 19.25,10.2857143 L18.2,10.2857143 L18.2,10.9714286 Z" id="形状"></path>
        </g>
    </g>
</svg>