<?xml version="1.0" encoding="UTF-8"?>
<svg width="32px" height="32px" viewBox="0 0 32 32" version="1.1" xmlns="http://www.w3.org/2000/svg" xmlns:xlink="http://www.w3.org/1999/xlink">
    <!-- Generator: Sketch 61.2 (89653) - https://sketch.com -->
    <title>扫码a备份</title>
    <desc>Created with Sketch.</desc>
    <defs>
        <linearGradient x1="-23.6472801%" y1="104.701451%" x2="100%" y2="24.5535714%" id="linearGradient-1">
            <stop stop-color="#EA5C03" offset="0%"></stop>
            <stop stop-color="#EDB100" offset="100%"></stop>
        </linearGradient>
    </defs>
    <g id="扫码a备份" stroke="none" stroke-width="1" fill="none" fill-rule="evenodd">
        <g id="编组备份-3" transform="translate(2.000000, 4.000000)" fill="url(#linearGradient-1)" fill-rule="nonzero">
            <path d="M24.15,0 C26.27625,0 28,1.68857142 28,3.77142856 L28,20.2285714 C28,22.3114286 26.27625,24 24.15,24 L3.85000002,24 C1.72375002,24 0,22.3114286 0,20.2285714 L0,3.77142856 C0,1.68857142 1.72374999,0 3.85000002,0 L24.15,0 Z M14,7 C13.420101,7 12.95,7.46050711 12.95,8.02857143 L12.95,8.02857143 L12.95,15.8007254 C12.95,16.3687898 13.420101,16.8292969 14,16.8292969 C14.579899,16.8292969 15.05,16.3687898 15.05,15.8007254 L15.05,15.8007254 L15.05,8.02857143 C15.05,7.46050711 14.579899,7 14,7 Z M9.05,7 C8.47010101,7 8,7.46050711 8,8.02857143 L8,8.02857143 L8,15.8007254 C8,16.3687898 8.47010101,16.8292969 9.05,16.8292969 C9.62989899,16.8292969 10.1,16.3687898 10.1,15.8007254 L10.1,15.8007254 L10.1,8.02857143 C10.1,7.46050711 9.62989899,7 9.05,7 Z M19.05,7 C18.470101,7 18,7.46050711 18,8.02857143 L18,8.02857143 L18,15.8007254 C18,16.3687898 18.470101,16.8292969 19.05,16.8292969 C19.629899,16.8292969 20.1,16.3687898 20.1,15.8007254 L20.1,15.8007254 L20.1,8.02857143 C20.1,7.46050711 19.629899,7 19.05,7 Z" id="形状"></path>
        </g>
    </g>
</svg>