<?xml version="1.0" encoding="UTF-8"?>
<svg width="24px" height="24px" viewBox="0 0 24 24" version="1.1" xmlns="http://www.w3.org/2000/svg" xmlns:xlink="http://www.w3.org/1999/xlink">
    <!-- Generator: Sketch 61.2 (89653) - https://sketch.com -->
    <title>密码</title>
    <desc>Created with Sketch.</desc>
    <defs>
        <linearGradient x1="69.3155532%" y1="13.8055099%" x2="29.1832252%" y2="100%" id="linearGradient-1">
            <stop stop-color="#FF9F00" offset="0%"></stop>
            <stop stop-color="#FF6600" offset="100%"></stop>
        </linearGradient>
    </defs>
    <g id="密码" stroke="none" stroke-width="1" fill="none" fill-rule="evenodd">
        <g id="重设密码" transform="translate(2.000000, 0.000000)" fill="url(#linearGradient-1)">
            <path d="M17.2431001,8.0289463 L17.2431001,6.71821332 C17.2431001,3.00870893 14.0749827,0 10.1651664,0 C6.25542431,0 3.08730684,3.00868421 3.08730684,6.71821332 L3.08730684,7.99048726 C1.36125511,8.10885701 0,9.47562458 0,11.1444254 L0,19.838741 C0,21.5841632 1.49095728,23 3.33070223,23 L16.6692977,23 C18.5090427,23 20,21.5841632 20,19.838741 L20,11.1444254 C20,9.58365614 18.8093094,8.28712888 17.2431001,8.0289463 Z M14.2922856,10.5100084 L15.3101427,13.6929763 L11.9051427,13.3843176 L12.5594285,12.5966093 C11.9487142,12.1734256 11.2137142,11.9387891 10.4394285,11.9387891 C8.41585704,11.9387891 6.77514275,13.5379486 6.77514275,15.5100084 C6.77514275,17.4827748 8.41585704,19.0819342 10.4394285,19.0819342 C11.9571752,19.0831883 13.3186233,18.1695509 13.8629999,16.7844518 C14.008406,16.4155703 14.4317209,16.2312878 14.8094285,16.3724413 C14.9905196,16.4398477 15.1367684,16.5748783 15.2159514,16.7477811 C15.2951343,16.920684 15.3007536,17.1172712 15.2315713,17.2942276 C14.4692313,19.2330438 12.563328,20.5118134 10.4387142,20.5100084 C7.60657132,20.5100084 5.31014275,18.2718797 5.31014275,15.5100084 C5.31014275,12.7488437 7.60657132,10.5100084 10.4387142,10.5100084 C11.5339949,10.5083587 12.6009707,10.8500319 13.4829999,11.4848792 L13.4829999,11.4848792 L14.2922856,10.5100084 Z M10.1534809,2.52929411 C12.828409,2.52929411 14.9986845,4.58993203 14.9986845,7.12988583 L14.9986845,7.98202874 L5.30696799,7.98202874 L5.30696799,7.12988583 C5.30696799,4.58993201 7.47590938,2.52929411 10.1534809,2.52929411 Z" id="形状"></path>
        </g>
    </g>
</svg>