<?xml version="1.0" encoding="UTF-8"?>
<svg width="20px" height="20px" viewBox="0 0 20 20" version="1.1" xmlns="http://www.w3.org/2000/svg" xmlns:xlink="http://www.w3.org/1999/xlink">
    <!-- Generator: Sketch 61.2 (89653) - https://sketch.com -->
    <title>多选</title>
    <desc>Created with Sketch.</desc>
    <defs>
        <linearGradient x1="74.4726562%" y1="24.6302538%" x2="0%" y2="99.8056367%" id="linearGradient-1">
            <stop stop-color="#FF9F00" offset="0%"></stop>
            <stop stop-color="#FF6600" offset="100%"></stop>
        </linearGradient>
    </defs>
    <g id="多选" stroke="none" stroke-width="1" fill="none" fill-rule="evenodd">
        <g id="编组" fill="url(#linearGradient-1)" fill-rule="nonzero">
            <path d="M10,-3.88578059e-15 C15.52275,-3.88578059e-15 20,4.46853939 20,9.98054475 C20,15.4925501 15.52275,19.9610895 10,19.9610895 C4.47725001,19.9610895 0,15.4925501 0,9.98054475 C0,4.46853941 4.47725001,-3.88578059e-15 10,-3.88578059e-15 Z M14.5085675,6.44776336 C14.1753158,6.44799375 13.8558101,6.57732718 13.6203522,6.80730654 L9.25579775,11.0430047 L7.13595126,8.81978188 C6.64323265,8.34870808 5.85314401,8.35329308 5.36620929,8.83005196 C4.87927457,9.30681085 4.87773888,10.077307 5.36276945,10.5559082 L8.37171958,13.6429059 C8.86293572,14.1199864 9.65758462,14.1188898 10.1474142,13.6404555 L15.3985596,8.53894043 C15.6340575,8.30900007 15.7662298,7.99723968 15.7659948,7.6722571 C15.7657586,7.34727452 15.6331343,7.03569671 15.3973032,6.80608133 C15.1615121,6.5764269 14.8418191,6.44753419 14.5085675,6.44776336 Z" id="选中"></path>
        </g>
    </g>
</svg>