<?xml version="1.0" encoding="UTF-8"?>
<svg width="24px" height="24px" viewBox="0 0 24 24" version="1.1" xmlns="http://www.w3.org/2000/svg" xmlns:xlink="http://www.w3.org/1999/xlink">
    <!-- Generator: Sketch 61.2 (89653) - https://sketch.com -->
    <title>客服</title>
    <desc>Created with Sketch.</desc>
    <defs>
        <linearGradient x1="72.3561832%" y1="13.8055099%" x2="25.9062747%" y2="100%" id="linearGradient-1">
            <stop stop-color="#FF9F00" offset="0%"></stop>
            <stop stop-color="#FF6600" offset="100%"></stop>
        </linearGradient>
    </defs>
    <g id="客服" stroke="none" stroke-width="1" fill="none" fill-rule="evenodd">
        <g id="编组" transform="translate(12.500000, 11.500000) rotate(-270.000000) translate(-12.500000, -11.500000) translate(1.000000, 0.000000)" fill="url(#linearGradient-1)">
            <path d="M14.6732486,22.9384758 L16.2718156,22.8579549 C19.2975415,22.799791 21.6954443,20.6485094 21.9810085,17.6251249 C22.0950251,16.5204376 22.0950251,15.4157858 22.0950251,14.2528637 C22.0380168,12.5086225 22.0950251,13.8405486 22.0380168,11.2526182 C22.0950251,8.52411043 19.0013078,6.31046541 16.2718156,6.31046541 C13.7429401,6.31046541 12.0227595,6.31046541 11.1335072,6.31046541 L11.1335072,2.45385742 C11.1335072,1.54621104 10.2554255,0.323432721 9.06719305,0.323432721 C7.87896063,0.323432721 6.90776924,1.05146007 6.90776922,2.45385742 C6.90776922,8.23437002 6.90776922,11.6866403 6.90776922,12.8106682 C6.50811876,12.3455703 6.04216863,11.8506406 5.0188532,10.8193352 C3.99553777,9.78802973 2.53331249,9.50215721 1.62981512,10.4702807 C0.679619806,11.4884424 0.679619806,12.7946215 1.8122756,14.2217706 C3.92468393,16.4312871 5.50968006,18.0158517 7.67913152,20.1669914 C8.14219852,20.6091484 9.08459658,21.5777549 10.1217585,22.1608879 C11.1305267,22.7280569 12.2354793,22.9160828 12.6178486,22.9160478" id="路径"></path>
        </g>
    </g>
</svg>