<?xml version="1.0" encoding="UTF-8"?>
<svg width="24px" height="24px" viewBox="0 0 24 24" version="1.1" xmlns="http://www.w3.org/2000/svg" xmlns:xlink="http://www.w3.org/1999/xlink">
    <!-- Generator: Sketch 61.2 (89653) - https://sketch.com -->
    <title>设置</title>
    <desc>Created with Sketch.</desc>
    <defs>
        <linearGradient x1="75.5448191%" y1="19.8065622%" x2="22.4698153%" y2="91.709992%" id="linearGradient-1">
            <stop stop-color="#FF9F00" offset="0%"></stop>
            <stop stop-color="#FF6600" offset="100%"></stop>
        </linearGradient>
    </defs>
    <g id="设置" stroke="none" stroke-width="1" fill="none" fill-rule="evenodd">
        <g id="编组备份-2" transform="translate(0.000000, 1.000000)" fill="url(#linearGradient-1)">
            <path d="M16.9059549,-3.01980663e-14 C17.6144954,0.00136891381 18.2661528,0.382559118 18.6066981,0.994858115 L23.410251,9.57838215 C23.7384497,10.1657052 23.7384497,10.877773 23.410251,11.4650961 L18.6066981,20.0486201 C18.2661528,20.6609191 17.6144954,21.0421093 16.9059549,21.0434783 L7.36684516,21.0434783 C6.65830465,21.0421093 6.00664726,20.6609191 5.66610198,20.0486201 L0.862549082,11.4650961 C0.534350339,10.877773 0.534350339,10.1657052 0.862549082,9.57838215 L5.66610198,0.994858115 C6.00664727,0.382559126 6.65830465,0.00136892327 7.36684516,-3.01980663e-14 L16.9059549,-3.01980663e-14 Z M12.1364,6.01242236 C9.59134402,6.01242236 7.52840002,8.0311871 7.52840002,10.5217391 C7.52840002,13.0122912 9.59134405,15.0310559 12.1364,15.0310559 C14.681168,15.0310559 16.7444,13.0122912 16.7444,10.5217391 C16.7444,8.0311871 14.681168,6.01242236 12.1364,6.01242236 Z" id="形状"></path>
        </g>
    </g>
</svg>