<?xml version="1.0" encoding="UTF-8"?>
<svg width="24px" height="24px" viewBox="0 0 24 24" version="1.1" xmlns="http://www.w3.org/2000/svg" xmlns:xlink="http://www.w3.org/1999/xlink">
    <!-- Generator: Sketch 61.2 (89653) - https://sketch.com -->
    <title>设置</title>
    <desc>Created with Sketch.</desc>
    <defs>
        <linearGradient x1="75.5448191%" y1="22.6317655%" x2="22.4698153%" y2="87.8071834%" id="linearGradient-1">
            <stop stop-color="#FF9F00" offset="0%"></stop>
            <stop stop-color="#FF6600" offset="100%"></stop>
        </linearGradient>
    </defs>
    <g id="设置" stroke="none" stroke-width="1" fill="none" fill-rule="evenodd">
        <path d="M16.8776744,2 C17.5849848,2.00130103 18.2355109,2.36358924 18.5754649,2.94552631 L23.3706783,11.103421 C23.6983073,11.6616207 23.6983073,12.3383793 23.3706783,12.896579 L18.5754649,21.0544737 C18.2355109,21.6364107 17.5849848,21.998699 16.8776744,22 L7.35512563,22 C6.64781523,21.998699 5.99728919,21.6364107 5.65733513,21.0544737 L0.86212174,12.896579 C0.534492787,12.3383793 0.534492787,11.6616207 0.86212174,11.103421 L5.65733513,2.94552631 C5.9972892,2.36358925 6.64781523,2.00130104 7.35512563,2 L16.8776744,2 Z M12,8 C9.79074999,8 8,9.79074999 8,12 C8,14.20925 9.79075002,16 12,16 C14.209,16 16,14.20925 16,12 C16,9.79074999 14.209,8 12,8 Z" id="形状" fill="url(#linearGradient-1)"></path>
    </g>
</svg>