<?xml version="1.0" encoding="UTF-8"?>
<svg width="22px" height="22px" viewBox="0 0 22 22" version="1.1" xmlns="http://www.w3.org/2000/svg" xmlns:xlink="http://www.w3.org/1999/xlink">
    <!-- Generator: Sketch 61.2 (89653) - https://sketch.com -->
    <title>不加班</title>
    <desc>Created with Sketch.</desc>
    <defs>
        <linearGradient x1="-17.6050647%" y1="122.595636%" x2="76.4278017%" y2="24.9057112%" id="linearGradient-1">
            <stop stop-color="#EA5C03" offset="0%"></stop>
            <stop stop-color="#EDB100" offset="100%"></stop>
        </linearGradient>
    </defs>
    <g id="app" stroke="none" stroke-width="1" fill="none" fill-rule="evenodd">
        <g id="选餐备份" transform="translate(-334.000000, -34.000000)" fill="url(#linearGradient-1)" fill-rule="nonzero">
            <g id="不加班" transform="translate(334.000000, 34.000000)">
                <path d="M11,0 C17.075025,0 22,4.92497499 22,11 C22,17.075025 17.075025,22 11,22 C4.92497501,22 0,17.075025 0,11 C0,4.92497501 4.92497501,0 11,0 Z M7.54704057,14.0265019 C7.26786126,14.1282354 7.06495724,14.3722386 7.01584817,14.6652899 C6.96673909,14.9583412 7.07901279,15.2551614 7.309775,15.44235 C8.34572954,16.3051885 9.65178311,16.7768433 11,16.7750054 C12.347865,16.7768044 13.653587,16.3053586 14.6894,15.4429 C14.9160582,15.2544603 15.0249677,14.9594141 14.9751032,14.6689024 C14.9252387,14.3783908 14.7241759,14.1365493 14.4476532,14.0344774 C14.1711305,13.9324055 13.8611582,13.9856103 13.6345,14.17405 C12.899425,14.785375 11.9768,15.125 11,15.125 C10.0371745,15.1268666 9.10434187,14.7901591 8.36467499,14.173775 C8.13853856,13.9810236 7.82621988,13.9247685 7.54704057,14.0265019 Z M7.5,7 C6.67157288,7 6,7.67157288 6,8.5 C6,9.32842712 6.67157288,10 7.5,10 C8.32842712,10 9,9.32842712 9,8.5 C9,7.67157288 8.32842712,7 7.5,7 Z M14.5,7 C13.6715729,7 13,7.67157288 13,8.5 C13,9.32842712 13.6715729,10 14.5,10 C15.3284271,10 16,9.32842712 16,8.5 C16,7.67157288 15.3284271,7 14.5,7 Z" id="形状结合"></path>
            </g>
        </g>
    </g>
</svg>