<?xml version="1.0" encoding="UTF-8"?>
<svg width="22px" height="22px" viewBox="0 0 22 22" version="1.1" xmlns="http://www.w3.org/2000/svg" xmlns:xlink="http://www.w3.org/1999/xlink">
    <!-- Generator: Sketch 61.2 (89653) - https://sketch.com -->
    <title>加班</title>
    <desc>Created with Sketch.</desc>
    <g id="app" stroke="none" stroke-width="1" fill="none" fill-rule="evenodd">
        <g id="选餐备份" transform="translate(-358.000000, -34.000000)" fill="#DDDDDD">
            <g id="加班" transform="translate(358.000000, 34.000000)">
                <path d="M11,0 C17.075025,0 22,4.92497499 22,11 C22,17.075025 17.075025,22 11,22 C4.92497501,22 0,17.075025 0,11 C0,4.92497501 4.92497501,0 11,0 Z M11,13.9766281 C9.65178311,13.9747902 8.34572954,14.446445 7.309775,15.3092835 C7.07901279,15.4964721 6.96673909,15.7932923 7.01584817,16.0863436 C7.06495724,16.379395 7.26786126,16.6233981 7.54704057,16.7251316 C7.82621988,16.826865 8.13853856,16.7706099 8.36467499,16.5778585 C9.10434187,15.9614744 10.0371745,15.6247669 11,15.6266335 C11.9768,15.6266335 12.899425,15.9662585 13.6345,16.5775835 C13.8611582,16.7660232 14.1711305,16.819228 14.4476532,16.7171561 C14.7241759,16.6150842 14.9252387,16.3732427 14.9751032,16.0827311 C15.0249677,15.7922195 14.9160582,15.4971732 14.6894,15.3087335 C13.653587,14.4462749 12.347865,13.9748291 11,13.9766281 Z M7.5,7 C6.67157288,7 6,7.67157288 6,8.5 C6,9.32842712 6.67157288,10 7.5,10 C8.32842712,10 9,9.32842712 9,8.5 C9,7.67157288 8.32842712,7 7.5,7 Z M14.5,7 C13.6715729,7 13,7.67157288 13,8.5 C13,9.32842712 13.6715729,10 14.5,10 C15.3284271,10 16,9.32842712 16,8.5 C16,7.67157288 15.3284271,7 14.5,7 Z" id="形状结合"></path>
            </g>
        </g>
    </g>
</svg>